<svg width="300" height="2604" viewBox="0 0 300 2604" fill="none" xmlns="http://www.w3.org/2000/svg">
<path d="M294.202 0.226497L288.428 6L294.202 11.7735L299.975 6L294.202 0.226497ZM294.202 542L295.202 542.002V542H294.202ZM21.5005 570L21.512 569H21.5005V570ZM2.00054 1183L2.99825 1183.07L3.00048 1183.03L3.00054 1183L2.00054 1183ZM266.001 1206.5V1205.5H265.993L266.001 1206.5ZM2.78066 1854.5H1.78066H2.78066ZM2.78093 2573.64L3.78053 2573.67L3.78093 2573.66L3.78093 2573.64H2.78093ZM298.474 2598L292.701 2592.23L286.927 2598L292.701 2603.77L298.474 2598ZM294.202 6H293.202V542H294.202H295.202V6H294.202ZM294.202 542L293.202 541.998C293.185 551.451 291.588 557.717 288.912 561.846C286.264 565.931 282.483 568.04 277.796 569.021L278.001 570L278.206 570.979C283.284 569.915 287.587 567.566 290.59 562.933C293.564 558.344 295.185 551.633 295.202 542.002L294.202 542ZM278.001 570L277.796 569.021C277.271 569.131 276.102 569.244 274.273 569.348C272.47 569.451 270.094 569.542 267.204 569.622C261.424 569.784 253.613 569.901 244.273 569.982C225.597 570.145 200.83 570.161 174.037 570.086C120.451 569.937 58.7707 569.426 21.512 569L21.5005 570L21.4891 571C58.7526 571.426 120.439 571.937 174.031 572.086C200.827 572.161 225.603 572.145 244.291 571.982C253.634 571.901 261.461 571.783 267.26 571.622C270.158 571.541 272.556 571.449 274.386 571.345C276.188 571.242 277.509 571.125 278.206 570.979L278.001 570ZM21.5005 570V569C17.3263 569 12.3826 569.931 8.50178 573.969C4.63377 577.994 2.00054 584.921 2.00054 596.5H3.00054H4.00054C4.00054 585.179 6.58032 578.855 9.94383 575.355C13.2945 571.869 17.6008 571 21.5005 571V570ZM3.00054 596.5H2.00054C2.00054 607.949 1.75054 754.572 1.50054 898.336C1.37554 970.217 1.25054 1041.38 1.15679 1094.58C1.10992 1121.18 1.07085 1143.28 1.04351 1158.74C1.02984 1166.46 1.0191 1172.53 1.01177 1176.66C1.00811 1178.73 1.0053 1180.31 1.00341 1181.38C1.00246 1181.91 1.00175 1182.32 1.00127 1182.59C1.00102 1182.73 1.00084 1182.83 1.00072 1182.9C1.00066 1182.93 1.00062 1182.96 1.00059 1182.97C1.00057 1182.98 1.00056 1182.99 1.00055 1182.99C1.00054 1183 1.00054 1183 2.00054 1183C3.00054 1183 3.00054 1183 3.00055 1183C3.00056 1182.99 3.00057 1182.98 3.00058 1182.98C3.00061 1182.96 3.00066 1182.93 3.00072 1182.9C3.00084 1182.83 3.00102 1182.73 3.00126 1182.59C3.00174 1182.32 3.00246 1181.92 3.00341 1181.38C3.0053 1180.32 3.00811 1178.73 3.01177 1176.67C3.01909 1172.53 3.02983 1166.47 3.04351 1158.74C3.07085 1143.28 3.10991 1121.18 3.15679 1094.58C3.25054 1041.39 3.37554 970.221 3.50054 898.339C3.75054 754.578 4.00054 607.951 4.00054 596.5H3.00054ZM2.00054 1183C1.00283 1182.93 1.00278 1182.93 1.00273 1182.93C1.0027 1182.93 1.00264 1182.94 1.00259 1182.94C1.00249 1182.94 1.00237 1182.94 1.00223 1182.94C1.00196 1182.95 1.00161 1182.95 1.00121 1182.96C1.0004 1182.97 0.999366 1182.99 0.998234 1183.02C0.995968 1183.07 0.993301 1183.13 0.991229 1183.22C0.987087 1183.4 0.985321 1183.65 0.993945 1183.97C1.01118 1184.61 1.06999 1185.51 1.23509 1186.6C1.56487 1188.77 2.3218 1191.69 4.03524 1194.66C7.49864 1200.67 14.7459 1206.7 29.6174 1207.5L29.6712 1206.5L29.7251 1205.5C15.4385 1204.73 8.85047 1199.01 5.76802 1193.66C4.20854 1190.96 3.51493 1188.29 3.21239 1186.3C3.06133 1185.31 3.00854 1184.49 2.99322 1183.92C2.98556 1183.63 2.98727 1183.42 2.99068 1183.27C2.99238 1183.2 2.99451 1183.14 2.99609 1183.11C2.99688 1183.09 2.99754 1183.08 2.99794 1183.07C2.99814 1183.07 2.99827 1183.07 2.99833 1183.07C2.99836 1183.07 2.99837 1183.07 2.99835 1183.07C2.99835 1183.07 2.99832 1183.07 2.99832 1183.07C2.99828 1183.07 2.99825 1183.07 2.00054 1183ZM29.6712 1206.5L29.6174 1207.5C44.2336 1208.29 103.358 1208.29 158.774 1208.09C186.494 1207.99 213.302 1207.84 233.181 1207.72C243.12 1207.66 251.327 1207.6 257.049 1207.56C259.91 1207.54 262.15 1207.53 263.674 1207.52C264.436 1207.51 265.02 1207.51 265.413 1207.5C265.609 1207.5 265.758 1207.5 265.858 1207.5C265.908 1207.5 265.945 1207.5 265.97 1207.5C265.983 1207.5 265.992 1207.5 265.999 1207.5C266.002 1207.5 266.004 1207.5 266.006 1207.5C266.007 1207.5 266.008 1207.5 266.001 1206.5C265.993 1205.5 265.992 1205.5 265.991 1205.5C265.989 1205.5 265.987 1205.5 265.984 1205.5C265.977 1205.5 265.968 1205.5 265.955 1205.5C265.93 1205.5 265.893 1205.5 265.843 1205.5C265.743 1205.5 265.594 1205.5 265.398 1205.5C265.005 1205.51 264.422 1205.51 263.66 1205.52C262.135 1205.53 259.896 1205.54 257.035 1205.56C251.313 1205.6 243.107 1205.66 233.168 1205.72C213.291 1205.84 186.484 1205.99 158.767 1206.09C103.307 1206.29 44.2669 1206.29 29.7251 1205.5L29.6712 1206.5ZM266.001 1206.5V1207.5C270.115 1207.5 277.401 1208.53 283.625 1212.66C289.785 1216.75 295.001 1223.93 295.001 1236.5H296.001H297.001C297.001 1223.27 291.453 1215.45 284.731 1210.99C278.074 1206.57 270.359 1205.5 266.001 1205.5V1206.5ZM296.001 1236.5H295.001C295.001 1245.7 294.876 1338.99 294.751 1454.72C294.626 1570.44 294.501 1708.59 294.501 1807.5H295.501H296.501C296.501 1708.59 296.626 1570.44 296.751 1454.72C296.876 1339 297.001 1245.7 297.001 1236.5H296.001ZM295.501 1807.5H294.501C294.501 1817.02 292.515 1822.28 289.214 1825.21C285.889 1828.17 280.98 1829 274.501 1829V1830V1831C281.029 1831 286.62 1830.2 290.543 1826.71C294.49 1823.2 296.501 1817.21 296.501 1807.5H295.501ZM274.501 1830V1829H29.5V1830V1831H274.501V1830ZM29.5 1830V1829C20.2537 1829 13.2387 1829.98 8.57074 1833.79C3.84362 1837.64 1.78066 1844.16 1.78066 1854.5H2.78066H3.78066C3.78066 1844.34 5.82736 1838.61 9.83492 1835.34C13.9017 1832.02 20.2463 1831 29.5 1831V1830ZM2.78066 1854.5H1.78066L1.78093 2573.64H2.78093H3.78093L3.78066 1854.5H2.78066ZM2.78093 2573.64L1.78133 2573.61C1.61804 2579.39 2.58067 2583.92 4.36421 2587.44C6.15205 2590.98 8.73611 2593.45 11.717 2595.17C17.6282 2598.58 25.0944 2599 31.0326 2599V2598V2597C25.102 2597 18.1228 2596.55 12.7156 2593.44C10.0373 2591.9 7.74384 2589.69 6.14891 2586.54C4.54967 2583.38 3.62424 2579.2 3.78053 2573.67L2.78093 2573.64ZM31.0326 2598V2599C31.0558 2599 31.0795 2599 31.1039 2599C31.1283 2599 31.1534 2599 31.179 2599C31.2046 2599 31.2308 2599 31.2576 2599C31.2844 2599 31.3119 2599 31.3399 2599C31.3679 2599 31.3966 2599 31.4258 2599C31.455 2599 31.4848 2599 31.5153 2599C31.5457 2599 31.5767 2599 31.6084 2599C31.64 2599 31.6722 2599 31.705 2599C31.7378 2599 31.7712 2599 31.8052 2599C31.8392 2599 31.8738 2599 31.909 2599C31.9442 2599 31.98 2599 32.0163 2599C32.0527 2599 32.0897 2599 32.1272 2599C32.1647 2599 32.2029 2599 32.2416 2599C32.2803 2599 32.3196 2599 32.3595 2599C32.3994 2599 32.4398 2599 32.4809 2599C32.5219 2599 32.5635 2599 32.6057 2599C32.648 2599 32.6907 2599 32.7341 2599C32.7775 2599 32.8214 2599 32.8659 2599C32.9104 2599 32.9555 2599 33.0012 2599C33.0469 2599 33.0931 2599 33.1399 2599C33.1867 2599 33.2341 2599 33.2821 2599C33.33 2599 33.3785 2599 33.4276 2599C33.4767 2599 33.5264 2599 33.5766 2599C33.6268 2599 33.6776 2599 33.729 2599C33.7803 2599 33.8323 2599 33.8847 2599C33.9372 2599 33.9903 2599 34.0439 2599C34.0975 2599 34.1517 2599 34.2064 2599C34.2611 2599 34.3164 2599 34.3722 2599C34.4281 2599 34.4845 2599 34.5414 2599C34.5984 2599 34.6559 2599 34.7139 2599C34.772 2599 34.8306 2599 34.8898 2599C34.949 2599 35.0087 2599 35.0689 2599C35.1292 2599 35.19 2599 35.2514 2599C35.3127 2599 35.3746 2599 35.4371 2599C35.4996 2599 35.5626 2599 35.6261 2599C35.6896 2599 35.7537 2599 35.8184 2599C35.883 2599 35.9482 2599 36.0139 2599C36.0796 2599 36.1458 2599 36.2126 2599C36.2794 2599 36.3467 2599 36.4146 2599C36.4825 2599 36.5509 2599 36.6198 2599C36.6887 2599 36.7582 2599 36.8282 2599C36.8982 2599 36.9687 2599 37.0398 2599C37.1108 2599 37.1824 2599 37.2545 2599C37.3267 2599 37.3993 2599 37.4725 2599C37.5457 2599 37.6194 2599 37.6936 2599C37.7678 2599 37.8426 2599 37.9178 2599C37.9931 2599 38.0689 2599 38.1452 2599C38.2215 2599 38.2984 2599 38.3757 2599C38.4531 2599 38.531 2599 38.6094 2599C38.6878 2599 38.7667 2599 38.8461 2599C38.9255 2599 39.0055 2599 39.0859 2599C39.1664 2599 39.2473 2599 39.3288 2599C39.4103 2599 39.4923 2599 39.5748 2599C39.6573 2599 39.7403 2599 39.8238 2599C39.9073 2599 39.9914 2599 40.0759 2599C40.1604 2599 40.2455 2599 40.331 2599C40.4166 2599 40.5026 2599 40.5891 2599C40.6757 2599 40.7627 2599 40.8503 2599C40.9378 2599 41.0259 2599 41.1144 2599C41.203 2599 41.292 2599 41.3816 2599C41.4711 2599 41.5612 2599 41.6517 2599C41.7422 2599 41.8333 2599 41.9248 2599C42.0163 2599 42.1083 2599 42.2008 2599C42.2933 2599 42.3863 2599 42.4798 2599C42.5733 2599 42.6672 2599 42.7617 2599C42.8562 2599 42.9511 2599 43.0465 2599C43.142 2599 43.2379 2599 43.3343 2599C43.4307 2599 43.5276 2599 43.6249 2599C43.7223 2599 43.8201 2599 43.9185 2599C44.0168 2599 44.1156 2599 44.2149 2599C44.3142 2599 44.4139 2599 44.5141 2599C44.6144 2599 44.7151 2599 44.8163 2599C44.9175 2599 45.0191 2599 45.1212 2599C45.2234 2599 45.326 2599 45.429 2599C45.5321 2599 45.6357 2599 45.7397 2599C45.8437 2599 45.9481 2599 46.0531 2599C46.158 2599 46.2634 2599 46.3693 2599C46.4752 2599 46.5815 2599 46.6883 2599C46.7951 2599 46.9024 2599 47.0101 2599C47.1178 2599 47.226 2599 47.3347 2599C47.4433 2599 47.5524 2599 47.662 2599C47.7715 2599 47.8815 2599 47.992 2599C48.1025 2599 48.2134 2599 48.3248 2599C48.4361 2599 48.548 2599 48.6603 2599C48.7725 2599 48.8853 2599 48.9985 2599C49.1116 2599 49.2253 2599 49.3393 2599C49.4534 2599 49.5679 2599 49.6829 2599C49.7979 2599 49.9133 2599 50.0292 2599C50.145 2599 50.2613 2599 50.3781 2599C50.4948 2599 50.612 2599 50.7296 2599C50.8473 2599 50.9653 2599 51.0838 2599C51.2023 2599 51.3213 2599 51.4406 2599C51.56 2599 51.6798 2599 51.8001 2599C51.9203 2599 52.041 2599 52.1621 2599C52.2832 2599 52.4048 2599 52.5268 2599C52.6487 2599 52.7711 2599 52.894 2599C53.0168 2599 53.1401 2599 53.2638 2599C53.3874 2599 53.5116 2599 53.6361 2599C53.7606 2599 53.8856 2599 54.011 2599C54.1364 2599 54.2622 2599 54.3884 2599C54.5147 2599 54.6413 2599 54.7684 2599C54.8955 2599 55.0229 2599 55.1509 2599C55.2788 2599 55.4071 2599 55.5358 2599C55.6646 2599 55.7937 2599 55.9233 2599C56.0529 2599 56.1828 2599 56.3132 2599C56.4436 2599 56.5744 2599 56.7056 2599C56.8369 2599 56.9685 2599 57.1005 2599C57.2325 2599 57.365 2599 57.4978 2599C57.6307 2599 57.7639 2599 57.8976 2599C58.0312 2599 58.1653 2599 58.2998 2599C58.4342 2599 58.5691 2599 58.7043 2599C58.8396 2599 58.9753 2599 59.1113 2599C59.2474 2599 59.3838 2599 59.5207 2599C59.6576 2599 59.7948 2599 59.9324 2599C60.0701 2599 60.2081 2599 60.3466 2599C60.485 2599 60.6238 2599 60.763 2599C60.9023 2599 61.0419 2599 61.1819 2599C61.3219 2599 61.4622 2599 61.603 2599C61.7438 2599 61.8849 2599 62.0265 2599C62.168 2599 62.31 2599 62.4523 2599C62.5946 2599 62.7373 2599 62.8803 2599C63.0234 2599 63.1669 2599 63.3107 2599C63.4545 2599 63.5988 2599 63.7434 2599C63.888 2599 64.0329 2599 64.1783 2599C64.3236 2599 64.4693 2599 64.6154 2599C64.7615 2599 64.908 2599 65.0548 2599C65.2017 2599 65.3489 2599 65.4965 2599C65.644 2599 65.792 2599 65.9403 2599C66.0886 2599 66.2373 2599 66.3864 2599C66.5354 2599 66.6849 2599 66.8346 2599C66.9844 2599 67.1346 2599 67.2851 2599C67.4356 2599 67.5865 2599 67.7377 2599C67.8889 2599 68.0405 2599 68.1925 2599C68.3444 2599 68.4967 2599 68.6494 2599C68.8021 2599 68.9551 2599 69.1085 2599C69.2619 2599 69.4156 2599 69.5697 2599C69.7238 2599 69.8782 2599 70.033 2599C70.1878 2599 70.3429 2599 70.4984 2599C70.6539 2599 70.8098 2599 70.9659 2599C71.1221 2599 71.2787 2599 71.4355 2599C71.5924 2599 71.7497 2599 71.9072 2599C72.0648 2599 72.2227 2599 72.381 2599C72.5392 2599 72.6978 2599 72.8567 2599C73.0157 2599 73.1749 2599 73.3346 2599C73.4942 2599 73.6541 2599 73.8144 2599C73.9747 2599 74.1353 2599 74.2963 2599C74.4572 2599 74.6185 2599 74.7801 2599C74.9418 2599 75.1037 2599 75.266 2599C75.4283 2599 75.5909 2599 75.7539 2599C75.9168 2599 76.0801 2599 76.2437 2599C76.4073 2599 76.5712 2599 76.7354 2599C76.8997 2599 77.0643 2599 77.2292 2599C77.3941 2599 77.5593 2599 77.7248 2599C77.8904 2599 78.0562 2599 78.2224 2599C78.3886 2599 78.5551 2599 78.7219 2599C78.8887 2599 79.0558 2599 79.2233 2599C79.3907 2599 79.5585 2599 79.7266 2599C79.8946 2599 80.063 2599 80.2317 2599C80.4004 2599 80.5695 2599 80.7388 2599C80.9081 2599 81.0777 2599 81.2477 2599C81.4176 2599 81.5878 2599 81.7584 2599C81.929 2599 82.0998 2599 82.271 2599C82.4421 2599 82.6136 2599 82.7854 2599C82.9571 2599 83.1292 2599 83.3016 2599C83.4739 2599 83.6466 2599 83.8196 2599C83.9925 2599 84.1658 2599 84.3394 2599C84.5129 2599 84.6868 2599 84.8609 2599C85.0351 2599 85.2095 2599 85.3843 2599C85.559 2599 85.7341 2599 85.9094 2599C86.0847 2599 86.2603 2599 86.4362 2599C86.6121 2599 86.7883 2599 86.9648 2599C87.1413 2599 87.318 2599 87.4951 2599C87.6721 2599 87.8495 2599 88.0271 2599C88.2047 2599 88.3826 2599 88.5608 2599C88.739 2599 88.9174 2599 89.0962 2599C89.2749 2599 89.4539 2599 89.6332 2599C89.8125 2599 89.9921 2599 90.1719 2599C90.3518 2599 90.5319 2599 90.7123 2599C90.8927 2599 91.0734 2599 91.2543 2599C91.4353 2599 91.6165 2599 91.798 2599C91.9795 2599 92.1612 2599 92.3433 2599C92.5253 2599 92.7076 2599 92.8901 2599C93.0727 2599 93.2555 2599 93.4386 2599C93.6217 2599 93.8051 2599 93.9887 2599C94.1723 2599 94.3562 2599 94.5403 2599C94.7244 2599 94.9088 2599 95.0935 2599C95.2782 2599 95.4631 2599 95.6482 2599C95.8334 2599 96.0188 2599 96.2045 2599C96.3902 2599 96.5761 2599 96.7623 2599C96.9485 2599 97.135 2599 97.3217 2599C97.5084 2599 97.6953 2599 97.8825 2599C98.0697 2599 98.2571 2599 98.4448 2599C98.6325 2599 98.8205 2599 99.0087 2599C99.1968 2599 99.3853 2599 99.5739 2599C99.7626 2599 99.9515 2599 100.141 2599C100.33 2599 100.519 2599 100.709 2599C100.899 2599 101.088 2599 101.279 2599C101.469 2599 101.659 2599 101.85 2599C102.04 2599 102.231 2599 102.422 2599C102.613 2599 102.804 2599 102.996 2599C103.187 2599 103.379 2599 103.571 2599C103.763 2599 103.955 2599 104.148 2599C104.34 2599 104.533 2599 104.726 2599C104.919 2599 105.112 2599 105.305 2599C105.499 2599 105.692 2599 105.886 2599C106.08 2599 106.274 2599 106.468 2599C106.662 2599 106.857 2599 107.051 2599C107.246 2599 107.441 2599 107.636 2599C107.831 2599 108.027 2599 108.222 2599C108.418 2599 108.613 2599 108.809 2599C109.005 2599 109.202 2599 109.398 2599C109.594 2599 109.791 2599 109.988 2599C110.185 2599 110.382 2599 110.579 2599C110.776 2599 110.974 2599 111.171 2599C111.369 2599 111.567 2599 111.765 2599C111.963 2599 112.161 2599 112.36 2599C112.558 2599 112.757 2599 112.956 2599C113.155 2599 113.354 2599 113.553 2599C113.752 2599 113.952 2599 114.151 2599C114.351 2599 114.551 2599 114.751 2599C114.951 2599 115.151 2599 115.352 2599C115.552 2599 115.753 2599 115.953 2599C116.154 2599 116.355 2599 116.557 2599C116.758 2599 116.959 2599 117.161 2599C117.362 2599 117.564 2599 117.766 2599C117.968 2599 118.17 2599 118.372 2599C118.575 2599 118.777 2599 118.98 2599C119.183 2599 119.385 2599 119.588 2599C119.791 2599 119.995 2599 120.198 2599C120.402 2599 120.605 2599 120.809 2599C121.013 2599 121.217 2599 121.421 2599C121.625 2599 121.829 2599 122.033 2599C122.238 2599 122.442 2599 122.647 2599C122.852 2599 123.057 2599 123.262 2599C123.467 2599 123.673 2599 123.878 2599C124.083 2599 124.289 2599 124.495 2599C124.701 2599 124.907 2599 125.113 2599C125.319 2599 125.525 2599 125.732 2599C125.938 2599 126.145 2599 126.351 2599C126.558 2599 126.765 2599 126.972 2599C127.179 2599 127.386 2599 127.594 2599C127.801 2599 128.009 2599 128.216 2599C128.424 2599 128.632 2599 128.84 2599C129.048 2599 129.256 2599 129.464 2599C129.673 2599 129.881 2599 130.09 2599C130.298 2599 130.507 2599 130.716 2599C130.925 2599 131.134 2599 131.343 2599C131.552 2599 131.761 2599 131.971 2599C132.18 2599 132.39 2599 132.6 2599C132.809 2599 133.019 2599 133.229 2599C133.439 2599 133.649 2599 133.86 2599C134.07 2599 134.28 2599 134.491 2599C134.702 2599 134.912 2599 135.123 2599C135.334 2599 135.545 2599 135.756 2599C135.967 2599 136.178 2599 136.39 2599C136.601 2599 136.812 2599 137.024 2599C137.236 2599 137.447 2599 137.659 2599C137.871 2599 138.083 2599 138.295 2599C138.507 2599 138.719 2599 138.932 2599C139.144 2599 139.357 2599 139.569 2599C139.782 2599 139.994 2599 140.207 2599C140.42 2599 140.633 2599 140.846 2599C141.059 2599 141.272 2599 141.485 2599C141.699 2599 141.912 2599 142.126 2599C142.339 2599 142.553 2599 142.766 2599C142.98 2599 143.194 2599 143.408 2599C143.622 2599 143.836 2599 144.05 2599C144.264 2599 144.478 2599 144.693 2599C144.907 2599 145.122 2599 145.336 2599C145.551 2599 145.765 2599 145.98 2599C146.195 2599 146.41 2599 146.625 2599C146.84 2599 147.055 2599 147.27 2599C147.485 2599 147.7 2599 147.916 2599C148.131 2599 148.347 2599 148.562 2599C148.778 2599 148.993 2599 149.209 2599C149.425 2599 149.64 2599 149.856 2599C150.072 2599 150.288 2599 150.504 2599C150.72 2599 150.937 2599 151.153 2599C151.369 2599 151.585 2599 151.802 2599C152.018 2599 152.235 2599 152.451 2599C152.668 2599 152.885 2599 153.101 2599C153.318 2599 153.535 2599 153.752 2599C153.969 2599 154.186 2599 154.403 2599C154.62 2599 154.837 2599 155.054 2599C155.271 2599 155.488 2599 155.706 2599C155.923 2599 156.14 2599 156.358 2599C156.575 2599 156.793 2599 157.011 2599C157.228 2599 157.446 2599 157.664 2599C157.881 2599 158.099 2599 158.317 2599C158.535 2599 158.753 2599 158.971 2599C159.189 2599 159.407 2599 159.625 2599C159.843 2599 160.061 2599 160.28 2599C160.498 2599 160.716 2599 160.935 2599C161.153 2599 161.371 2599 161.59 2599C161.808 2599 162.027 2599 162.245 2599C162.464 2599 162.683 2599 162.901 2599C163.12 2599 163.339 2599 163.558 2599C163.776 2599 163.995 2599 164.214 2599C164.433 2599 164.652 2599 164.871 2599C165.09 2599 165.309 2599 165.528 2599C165.747 2599 165.966 2599 166.185 2599C166.404 2599 166.624 2599 166.843 2599C167.062 2599 167.281 2599 167.501 2599C167.72 2599 167.939 2599 168.159 2599C168.378 2599 168.597 2599 168.817 2599C169.036 2599 169.256 2599 169.475 2599C169.695 2599 169.914 2599 170.134 2599C170.354 2599 170.573 2599 170.793 2599C171.012 2599 171.232 2599 171.452 2599C171.671 2599 171.891 2599 172.111 2599C172.331 2599 172.55 2599 172.77 2599C172.99 2599 173.21 2599 173.43 2599C173.649 2599 173.869 2599 174.089 2599C174.309 2599 174.529 2599 174.749 2599C174.969 2599 175.189 2599 175.409 2599C175.629 2599 175.848 2599 176.068 2599C176.288 2599 176.508 2599 176.728 2599C176.948 2599 177.168 2599 177.388 2599C177.608 2599 177.828 2599 178.048 2599C178.268 2599 178.488 2599 178.708 2599C178.929 2599 179.149 2599 179.369 2599C179.589 2599 179.809 2599 180.029 2599C180.249 2599 180.469 2599 180.689 2599C180.909 2599 181.129 2599 181.349 2599C181.569 2599 181.789 2599 182.009 2599C182.229 2599 182.449 2599 182.669 2599C182.889 2599 183.109 2599 183.329 2599C183.549 2599 183.77 2599 183.99 2599C184.21 2599 184.43 2599 184.65 2599C184.869 2599 185.089 2599 185.309 2599C185.529 2599 185.749 2599 185.969 2599C186.189 2599 186.409 2599 186.629 2599C186.849 2599 187.069 2599 187.289 2599C187.509 2599 187.728 2599 187.948 2599C188.168 2599 188.388 2599 188.608 2599C188.827 2599 189.047 2599 189.267 2599C189.487 2599 189.706 2599 189.926 2599C190.146 2599 190.365 2599 190.585 2599C190.805 2599 191.024 2599 191.244 2599C191.463 2599 191.683 2599 191.902 2599C192.122 2599 192.341 2599 192.561 2599C192.78 2599 193 2599 193.219 2599C193.438 2599 193.658 2599 193.877 2599C194.096 2599 194.316 2599 194.535 2599C194.754 2599 194.973 2599 195.192 2599C195.411 2599 195.63 2599 195.85 2599C196.069 2599 196.288 2599 196.507 2599C196.726 2599 196.944 2599 197.163 2599C197.382 2599 197.601 2599 197.82 2599C198.039 2599 198.257 2599 198.476 2599C198.695 2599 198.913 2599 199.132 2599C199.35 2599 199.569 2599 199.787 2599C200.006 2599 200.224 2599 200.443 2599C200.661 2599 200.879 2599 201.097 2599C201.316 2599 201.534 2599 201.752 2599C201.97 2599 202.188 2599 202.406 2599C202.624 2599 202.842 2599 203.06 2599C203.278 2599 203.496 2599 203.713 2599C203.931 2599 204.149 2599 204.366 2599C204.584 2599 204.801 2599 205.019 2599C205.236 2599 205.454 2599 205.671 2599C205.888 2599 206.106 2599 206.323 2599C206.54 2599 206.757 2599 206.974 2599C207.191 2599 207.408 2599 207.625 2599C207.842 2599 208.059 2599 208.275 2599C208.492 2599 208.709 2599 208.925 2599C209.142 2599 209.358 2599 209.575 2599C209.791 2599 210.007 2599 210.223 2599C210.44 2599 210.656 2599 210.872 2599C211.088 2599 211.304 2599 211.52 2599C211.736 2599 211.951 2599 212.167 2599C212.383 2599 212.598 2599 212.814 2599C213.029 2599 213.245 2599 213.46 2599C213.676 2599 213.891 2599 214.106 2599C214.321 2599 214.536 2599 214.751 2599C214.966 2599 215.181 2599 215.395 2599C215.61 2599 215.825 2599 216.039 2599C216.254 2599 216.468 2599 216.683 2599C216.897 2599 217.111 2599 217.325 2599C217.539 2599 217.753 2599 217.967 2599C218.181 2599 218.395 2599 218.609 2599C218.822 2599 219.036 2599 219.25 2599C219.463 2599 219.676 2599 219.89 2599C220.103 2599 220.316 2599 220.529 2599C220.742 2599 220.955 2599 221.168 2599C221.38 2599 221.593 2599 221.806 2599C222.018 2599 222.231 2599 222.443 2599C222.655 2599 222.867 2599 223.079 2599C223.292 2599 223.503 2599 223.715 2599C223.927 2599 224.139 2599 224.35 2599C224.562 2599 224.773 2599 224.985 2599C225.196 2599 225.407 2599 225.618 2599C225.829 2599 226.04 2599 226.251 2599C226.462 2599 226.672 2599 226.883 2599C227.093 2599 227.304 2599 227.514 2599C227.724 2599 227.934 2599 228.144 2599C228.354 2599 228.564 2599 228.774 2599C228.984 2599 229.193 2599 229.403 2599C229.612 2599 229.821 2599 230.03 2599C230.24 2599 230.449 2599 230.657 2599C230.866 2599 231.075 2599 231.283 2599C231.492 2599 231.7 2599 231.909 2599C232.117 2599 232.325 2599 232.533 2599C232.741 2599 232.949 2599 233.156 2599C233.364 2599 233.572 2599 233.779 2599C233.986 2599 234.193 2599 234.4 2599C234.607 2599 234.814 2599 235.021 2599C235.228 2599 235.434 2599 235.641 2599C235.847 2599 236.053 2599 236.259 2599C236.465 2599 236.671 2599 236.877 2599C237.083 2599 237.288 2599 237.494 2599C237.699 2599 237.904 2599 238.11 2599C238.315 2599 238.52 2599 238.724 2599C238.929 2599 239.134 2599 239.338 2599C239.542 2599 239.747 2599 239.951 2599C240.155 2599 240.359 2599 240.562 2599C240.766 2599 240.97 2599 241.173 2599C241.376 2599 241.579 2599 241.782 2599C241.985 2599 242.188 2599 242.391 2599C242.593 2599 242.796 2599 242.998 2599C243.2 2599 243.403 2599 243.604 2599C243.806 2599 244.008 2599 244.21 2599C244.411 2599 244.612 2599 244.814 2599C245.015 2599 245.216 2599 245.416 2599C245.617 2599 245.818 2599 246.018 2599C246.219 2599 246.419 2599 246.619 2599C246.819 2599 247.019 2599 247.218 2599C247.418 2599 247.617 2599 247.816 2599C248.016 2599 248.215 2599 248.413 2599C248.612 2599 248.811 2599 249.009 2599C249.208 2599 249.406 2599 249.604 2599C249.802 2599 250 2599 250.197 2599C250.395 2599 250.592 2599 250.79 2599C250.987 2599 251.184 2599 251.38 2599C251.577 2599 251.774 2599 251.97 2599C252.166 2599 252.363 2599 252.559 2599C252.754 2599 252.95 2599 253.146 2599C253.341 2599 253.536 2599 253.731 2599C253.926 2599 254.121 2599 254.316 2599C254.511 2599 254.705 2599 254.899 2599C255.093 2599 255.287 2599 255.481 2599C255.675 2599 255.868 2599 256.062 2599C256.255 2599 256.448 2599 256.641 2599C256.834 2599 257.026 2599 257.219 2599C257.411 2599 257.603 2599 257.795 2599C257.987 2599 258.179 2599 258.37 2599C258.562 2599 258.753 2599 258.944 2599C259.135 2599 259.326 2599 259.516 2599C259.707 2599 259.897 2599 260.087 2599C260.277 2599 260.467 2599 260.656 2599C260.846 2599 261.035 2599 261.224 2599C261.414 2599 261.602 2599 261.791 2599C261.98 2599 262.168 2599 262.356 2599C262.544 2599 262.732 2599 262.92 2599C263.107 2599 263.295 2599 263.482 2599C263.669 2599 263.856 2599 264.042 2599C264.229 2599 264.415 2599 264.602 2599C264.788 2599 264.974 2599 265.159 2599C265.345 2599 265.53 2599 265.715 2599C265.9 2599 266.085 2599 266.27 2599C266.454 2599 266.639 2599 266.823 2599C267.007 2599 267.191 2599 267.374 2599C267.558 2599 267.741 2599 267.924 2599C268.107 2599 268.29 2599 268.472 2599C268.655 2599 268.837 2599 269.019 2599C269.201 2599 269.383 2599 269.564 2599C269.745 2599 269.926 2599 270.107 2599C270.288 2599 270.469 2599 270.649 2599C270.829 2599 271.01 2599 271.189 2599C271.369 2599 271.549 2599 271.728 2599C271.907 2599 272.086 2599 272.265 2599C272.443 2599 272.622 2599 272.8 2599C272.978 2599 273.156 2599 273.333 2599C273.511 2599 273.688 2599 273.865 2599C274.042 2599 274.219 2599 274.395 2599C274.571 2599 274.748 2599 274.923 2599C275.099 2599 275.275 2599 275.45 2599C275.625 2599 275.8 2599 275.975 2599C276.15 2599 276.324 2599 276.498 2599C276.672 2599 276.846 2599 277.019 2599C277.193 2599 277.366 2599 277.539 2599C277.712 2599 277.884 2599 278.057 2599C278.229 2599 278.401 2599 278.573 2599C278.744 2599 278.916 2599 279.087 2599C279.258 2599 279.429 2599 279.599 2599C279.769 2599 279.94 2599 280.109 2599C280.279 2599 280.449 2599 280.618 2599C280.787 2599 280.956 2599 281.125 2599C281.294 2599 281.462 2599 281.63 2599C281.798 2599 281.965 2599 282.133 2599C282.3 2599 282.467 2599 282.634 2599C282.801 2599 282.967 2599 283.133 2599C283.299 2599 283.465 2599 283.631 2599C283.796 2599 283.961 2599 284.126 2599C284.291 2599 284.455 2599 284.619 2599C284.784 2599 284.947 2599 285.111 2599C285.274 2599 285.438 2599 285.6 2599C285.763 2599 285.926 2599 286.088 2599C286.25 2599 286.412 2599 286.574 2599C286.735 2599 286.896 2599 287.057 2599C287.218 2599 287.379 2599 287.539 2599C287.699 2599 287.859 2599 288.018 2599C288.178 2599 288.337 2599 288.496 2599C288.655 2599 288.813 2599 288.971 2599C289.13 2599 289.287 2599 289.445 2599C289.602 2599 289.759 2599 289.916 2599C290.073 2599 290.229 2599 290.386 2599C290.542 2599 290.697 2599 290.853 2599C291.008 2599 291.163 2599 291.318 2599C291.473 2599 291.627 2599 291.781 2599C291.935 2599 292.089 2599 292.242 2599C292.395 2599 292.548 2599 292.701 2599V2598V2597C292.548 2597 292.395 2597 292.242 2597C292.089 2597 291.935 2597 291.781 2597C291.627 2597 291.473 2597 291.318 2597C291.163 2597 291.008 2597 290.853 2597C290.697 2597 290.542 2597 290.386 2597C290.229 2597 290.073 2597 289.916 2597C289.759 2597 289.602 2597 289.445 2597C289.287 2597 289.13 2597 288.971 2597C288.813 2597 288.655 2597 288.496 2597C288.337 2597 288.178 2597 288.018 2597C287.859 2597 287.699 2597 287.539 2597C287.379 2597 287.218 2597 287.057 2597C286.896 2597 286.735 2597 286.574 2597C286.412 2597 286.25 2597 286.088 2597C285.926 2597 285.763 2597 285.6 2597C285.438 2597 285.274 2597 285.111 2597C284.947 2597 284.784 2597 284.619 2597C284.455 2597 284.291 2597 284.126 2597C283.961 2597 283.796 2597 283.631 2597C283.465 2597 283.299 2597 283.133 2597C282.967 2597 282.801 2597 282.634 2597C282.467 2597 282.3 2597 282.133 2597C281.965 2597 281.798 2597 281.63 2597C281.462 2597 281.294 2597 281.125 2597C280.956 2597 280.787 2597 280.618 2597C280.449 2597 280.279 2597 280.109 2597C279.94 2597 279.769 2597 279.599 2597C279.429 2597 279.258 2597 279.087 2597C278.916 2597 278.744 2597 278.573 2597C278.401 2597 278.229 2597 278.057 2597C277.884 2597 277.712 2597 277.539 2597C277.366 2597 277.193 2597 277.019 2597C276.846 2597 276.672 2597 276.498 2597C276.324 2597 276.15 2597 275.975 2597C275.8 2597 275.625 2597 275.45 2597C275.275 2597 275.099 2597 274.923 2597C274.748 2597 274.571 2597 274.395 2597C274.219 2597 274.042 2597 273.865 2597C273.688 2597 273.511 2597 273.333 2597C273.156 2597 272.978 2597 272.8 2597C272.622 2597 272.443 2597 272.265 2597C272.086 2597 271.907 2597 271.728 2597C271.549 2597 271.369 2597 271.189 2597C271.01 2597 270.829 2597 270.649 2597C270.469 2597 270.288 2597 270.107 2597C269.926 2597 269.745 2597 269.564 2597C269.383 2597 269.201 2597 269.019 2597C268.837 2597 268.655 2597 268.472 2597C268.29 2597 268.107 2597 267.924 2597C267.741 2597 267.558 2597 267.374 2597C267.191 2597 267.007 2597 266.823 2597C266.639 2597 266.454 2597 266.27 2597C266.085 2597 265.9 2597 265.715 2597C265.53 2597 265.345 2597 265.159 2597C264.974 2597 264.788 2597 264.602 2597C264.415 2597 264.229 2597 264.042 2597C263.856 2597 263.669 2597 263.482 2597C263.295 2597 263.107 2597 262.92 2597C262.732 2597 262.544 2597 262.356 2597C262.168 2597 261.98 2597 261.791 2597C261.602 2597 261.414 2597 261.224 2597C261.035 2597 260.846 2597 260.656 2597C260.467 2597 260.277 2597 260.087 2597C259.897 2597 259.707 2597 259.516 2597C259.326 2597 259.135 2597 258.944 2597C258.753 2597 258.562 2597 258.37 2597C258.179 2597 257.987 2597 257.795 2597C257.603 2597 257.411 2597 257.219 2597C257.026 2597 256.834 2597 256.641 2597C256.448 2597 256.255 2597 256.062 2597C255.868 2597 255.675 2597 255.481 2597C255.287 2597 255.093 2597 254.899 2597C254.705 2597 254.511 2597 254.316 2597C254.121 2597 253.926 2597 253.731 2597C253.536 2597 253.341 2597 253.146 2597C252.95 2597 252.754 2597 252.559 2597C252.363 2597 252.166 2597 251.97 2597C251.774 2597 251.577 2597 251.38 2597C251.184 2597 250.987 2597 250.79 2597C250.592 2597 250.395 2597 250.197 2597C250 2597 249.802 2597 249.604 2597C249.406 2597 249.208 2597 249.009 2597C248.811 2597 248.612 2597 248.413 2597C248.215 2597 248.016 2597 247.816 2597C247.617 2597 247.418 2597 247.218 2597C247.019 2597 246.819 2597 246.619 2597C246.419 2597 246.219 2597 246.018 2597C245.818 2597 245.617 2597 245.416 2597C245.216 2597 245.015 2597 244.814 2597C244.612 2597 244.411 2597 244.21 2597C244.008 2597 243.806 2597 243.604 2597C243.403 2597 243.2 2597 242.998 2597C242.796 2597 242.593 2597 242.391 2597C242.188 2597 241.985 2597 241.782 2597C241.579 2597 241.376 2597 241.173 2597C240.97 2597 240.766 2597 240.562 2597C240.359 2597 240.155 2597 239.951 2597C239.747 2597 239.542 2597 239.338 2597C239.134 2597 238.929 2597 238.724 2597C238.52 2597 238.315 2597 238.11 2597C237.904 2597 237.699 2597 237.494 2597C237.288 2597 237.083 2597 236.877 2597C236.671 2597 236.465 2597 236.259 2597C236.053 2597 235.847 2597 235.641 2597C235.434 2597 235.228 2597 235.021 2597C234.814 2597 234.607 2597 234.4 2597C234.193 2597 233.986 2597 233.779 2597C233.572 2597 233.364 2597 233.156 2597C232.949 2597 232.741 2597 232.533 2597C232.325 2597 232.117 2597 231.909 2597C231.7 2597 231.492 2597 231.283 2597C231.075 2597 230.866 2597 230.657 2597C230.449 2597 230.24 2597 230.03 2597C229.821 2597 229.612 2597 229.403 2597C229.193 2597 228.984 2597 228.774 2597C228.564 2597 228.354 2597 228.144 2597C227.934 2597 227.724 2597 227.514 2597C227.304 2597 227.093 2597 226.883 2597C226.672 2597 226.462 2597 226.251 2597C226.04 2597 225.829 2597 225.618 2597C225.407 2597 225.196 2597 224.985 2597C224.773 2597 224.562 2597 224.35 2597C224.139 2597 223.927 2597 223.715 2597C223.503 2597 223.292 2597 223.079 2597C222.867 2597 222.655 2597 222.443 2597C222.231 2597 222.018 2597 221.806 2597C221.593 2597 221.38 2597 221.168 2597C220.955 2597 220.742 2597 220.529 2597C220.316 2597 220.103 2597 219.89 2597C219.676 2597 219.463 2597 219.25 2597C219.036 2597 218.822 2597 218.609 2597C218.395 2597 218.181 2597 217.967 2597C217.753 2597 217.539 2597 217.325 2597C217.111 2597 216.897 2597 216.683 2597C216.468 2597 216.254 2597 216.039 2597C215.825 2597 215.61 2597 215.395 2597C215.181 2597 214.966 2597 214.751 2597C214.536 2597 214.321 2597 214.106 2597C213.891 2597 213.676 2597 213.46 2597C213.245 2597 213.029 2597 212.814 2597C212.598 2597 212.383 2597 212.167 2597C211.951 2597 211.736 2597 211.52 2597C211.304 2597 211.088 2597 210.872 2597C210.656 2597 210.44 2597 210.223 2597C210.007 2597 209.791 2597 209.575 2597C209.358 2597 209.142 2597 208.925 2597C208.709 2597 208.492 2597 208.275 2597C208.059 2597 207.842 2597 207.625 2597C207.408 2597 207.191 2597 206.974 2597C206.757 2597 206.54 2597 206.323 2597C206.106 2597 205.888 2597 205.671 2597C205.454 2597 205.236 2597 205.019 2597C204.801 2597 204.584 2597 204.366 2597C204.149 2597 203.931 2597 203.713 2597C203.496 2597 203.278 2597 203.06 2597C202.842 2597 202.624 2597 202.406 2597C202.188 2597 201.97 2597 201.752 2597C201.534 2597 201.316 2597 201.097 2597C200.879 2597 200.661 2597 200.443 2597C200.224 2597 200.006 2597 199.787 2597C199.569 2597 199.35 2597 199.132 2597C198.913 2597 198.695 2597 198.476 2597C198.257 2597 198.039 2597 197.82 2597C197.601 2597 197.382 2597 197.163 2597C196.944 2597 196.726 2597 196.507 2597C196.288 2597 196.069 2597 195.85 2597C195.63 2597 195.411 2597 195.192 2597C194.973 2597 194.754 2597 194.535 2597C194.316 2597 194.096 2597 193.877 2597C193.658 2597 193.438 2597 193.219 2597C193 2597 192.78 2597 192.561 2597C192.341 2597 192.122 2597 191.902 2597C191.683 2597 191.463 2597 191.244 2597C191.024 2597 190.805 2597 190.585 2597C190.365 2597 190.146 2597 189.926 2597C189.706 2597 189.487 2597 189.267 2597C189.047 2597 188.827 2597 188.608 2597C188.388 2597 188.168 2597 187.948 2597C187.728 2597 187.509 2597 187.289 2597C187.069 2597 186.849 2597 186.629 2597C186.409 2597 186.189 2597 185.969 2597C185.749 2597 185.529 2597 185.309 2597C185.089 2597 184.869 2597 184.65 2597C184.43 2597 184.21 2597 183.99 2597C183.77 2597 183.549 2597 183.329 2597C183.109 2597 182.889 2597 182.669 2597C182.449 2597 182.229 2597 182.009 2597C181.789 2597 181.569 2597 181.349 2597C181.129 2597 180.909 2597 180.689 2597C180.469 2597 180.249 2597 180.029 2597C179.809 2597 179.589 2597 179.369 2597C179.149 2597 178.929 2597 178.708 2597C178.488 2597 178.268 2597 178.048 2597C177.828 2597 177.608 2597 177.388 2597C177.168 2597 176.948 2597 176.728 2597C176.508 2597 176.288 2597 176.068 2597C175.848 2597 175.629 2597 175.409 2597C175.189 2597 174.969 2597 174.749 2597C174.529 2597 174.309 2597 174.089 2597C173.869 2597 173.649 2597 173.43 2597C173.21 2597 172.99 2597 172.77 2597C172.55 2597 172.331 2597 172.111 2597C171.891 2597 171.671 2597 171.452 2597C171.232 2597 171.012 2597 170.793 2597C170.573 2597 170.354 2597 170.134 2597C169.914 2597 169.695 2597 169.475 2597C169.256 2597 169.036 2597 168.817 2597C168.597 2597 168.378 2597 168.159 2597C167.939 2597 167.72 2597 167.501 2597C167.281 2597 167.062 2597 166.843 2597C166.624 2597 166.404 2597 166.185 2597C165.966 2597 165.747 2597 165.528 2597C165.309 2597 165.09 2597 164.871 2597C164.652 2597 164.433 2597 164.214 2597C163.995 2597 163.776 2597 163.558 2597C163.339 2597 163.12 2597 162.901 2597C162.683 2597 162.464 2597 162.245 2597C162.027 2597 161.808 2597 161.59 2597C161.371 2597 161.153 2597 160.935 2597C160.716 2597 160.498 2597 160.28 2597C160.061 2597 159.843 2597 159.625 2597C159.407 2597 159.189 2597 158.971 2597C158.753 2597 158.535 2597 158.317 2597C158.099 2597 157.881 2597 157.664 2597C157.446 2597 157.228 2597 157.011 2597C156.793 2597 156.575 2597 156.358 2597C156.14 2597 155.923 2597 155.706 2597C155.488 2597 155.271 2597 155.054 2597C154.837 2597 154.62 2597 154.403 2597C154.186 2597 153.969 2597 153.752 2597C153.535 2597 153.318 2597 153.101 2597C152.885 2597 152.668 2597 152.451 2597C152.235 2597 152.018 2597 151.802 2597C151.585 2597 151.369 2597 151.153 2597C150.937 2597 150.72 2597 150.504 2597C150.288 2597 150.072 2597 149.856 2597C149.64 2597 149.425 2597 149.209 2597C148.993 2597 148.778 2597 148.562 2597C148.347 2597 148.131 2597 147.916 2597C147.7 2597 147.485 2597 147.27 2597C147.055 2597 146.84 2597 146.625 2597C146.41 2597 146.195 2597 145.98 2597C145.765 2597 145.551 2597 145.336 2597C145.122 2597 144.907 2597 144.693 2597C144.478 2597 144.264 2597 144.05 2597C143.836 2597 143.622 2597 143.408 2597C143.194 2597 142.98 2597 142.766 2597C142.553 2597 142.339 2597 142.126 2597C141.912 2597 141.699 2597 141.485 2597C141.272 2597 141.059 2597 140.846 2597C140.633 2597 140.42 2597 140.207 2597C139.994 2597 139.782 2597 139.569 2597C139.357 2597 139.144 2597 138.932 2597C138.719 2597 138.507 2597 138.295 2597C138.083 2597 137.871 2597 137.659 2597C137.447 2597 137.236 2597 137.024 2597C136.812 2597 136.601 2597 136.39 2597C136.178 2597 135.967 2597 135.756 2597C135.545 2597 135.334 2597 135.123 2597C134.912 2597 134.702 2597 134.491 2597C134.28 2597 134.07 2597 133.86 2597C133.649 2597 133.439 2597 133.229 2597C133.019 2597 132.809 2597 132.6 2597C132.39 2597 132.18 2597 131.971 2597C131.761 2597 131.552 2597 131.343 2597C131.134 2597 130.925 2597 130.716 2597C130.507 2597 130.298 2597 130.09 2597C129.881 2597 129.673 2597 129.464 2597C129.256 2597 129.048 2597 128.84 2597C128.632 2597 128.424 2597 128.216 2597C128.009 2597 127.801 2597 127.594 2597C127.386 2597 127.179 2597 126.972 2597C126.765 2597 126.558 2597 126.351 2597C126.145 2597 125.938 2597 125.732 2597C125.525 2597 125.319 2597 125.113 2597C124.907 2597 124.701 2597 124.495 2597C124.289 2597 124.083 2597 123.878 2597C123.673 2597 123.467 2597 123.262 2597C123.057 2597 122.852 2597 122.647 2597C122.442 2597 122.238 2597 122.033 2597C121.829 2597 121.625 2597 121.421 2597C121.217 2597 121.013 2597 120.809 2597C120.605 2597 120.402 2597 120.198 2597C119.995 2597 119.791 2597 119.588 2597C119.385 2597 119.183 2597 118.98 2597C118.777 2597 118.575 2597 118.372 2597C118.17 2597 117.968 2597 117.766 2597C117.564 2597 117.362 2597 117.161 2597C116.959 2597 116.758 2597 116.557 2597C116.355 2597 116.154 2597 115.953 2597C115.753 2597 115.552 2597 115.352 2597C115.151 2597 114.951 2597 114.751 2597C114.551 2597 114.351 2597 114.151 2597C113.952 2597 113.752 2597 113.553 2597C113.354 2597 113.155 2597 112.956 2597C112.757 2597 112.558 2597 112.36 2597C112.161 2597 111.963 2597 111.765 2597C111.567 2597 111.369 2597 111.171 2597C110.974 2597 110.776 2597 110.579 2597C110.382 2597 110.185 2597 109.988 2597C109.791 2597 109.594 2597 109.398 2597C109.202 2597 109.005 2597 108.809 2597C108.613 2597 108.418 2597 108.222 2597C108.027 2597 107.831 2597 107.636 2597C107.441 2597 107.246 2597 107.051 2597C106.857 2597 106.662 2597 106.468 2597C106.274 2597 106.08 2597 105.886 2597C105.692 2597 105.499 2597 105.305 2597C105.112 2597 104.919 2597 104.726 2597C104.533 2597 104.34 2597 104.148 2597C103.955 2597 103.763 2597 103.571 2597C103.379 2597 103.187 2597 102.996 2597C102.804 2597 102.613 2597 102.422 2597C102.231 2597 102.04 2597 101.85 2597C101.659 2597 101.469 2597 101.279 2597C101.088 2597 100.899 2597 100.709 2597C100.519 2597 100.33 2597 100.141 2597C99.9515 2597 99.7626 2597 99.5739 2597C99.3853 2597 99.1968 2597 99.0087 2597C98.8205 2597 98.6325 2597 98.4448 2597C98.2571 2597 98.0697 2597 97.8825 2597C97.6953 2597 97.5084 2597 97.3217 2597C97.135 2597 96.9485 2597 96.7623 2597C96.5761 2597 96.3902 2597 96.2045 2597C96.0188 2597 95.8334 2597 95.6482 2597C95.4631 2597 95.2782 2597 95.0935 2597C94.9088 2597 94.7244 2597 94.5403 2597C94.3562 2597 94.1723 2597 93.9887 2597C93.8051 2597 93.6217 2597 93.4386 2597C93.2555 2597 93.0727 2597 92.8901 2597C92.7076 2597 92.5253 2597 92.3433 2597C92.1612 2597 91.9795 2597 91.798 2597C91.6165 2597 91.4353 2597 91.2543 2597C91.0734 2597 90.8927 2597 90.7123 2597C90.5319 2597 90.3518 2597 90.1719 2597C89.9921 2597 89.8125 2597 89.6332 2597C89.4539 2597 89.2749 2597 89.0962 2597C88.9174 2597 88.739 2597 88.5608 2597C88.3826 2597 88.2047 2597 88.0271 2597C87.8495 2597 87.6721 2597 87.4951 2597C87.318 2597 87.1413 2597 86.9648 2597C86.7883 2597 86.6121 2597 86.4362 2597C86.2603 2597 86.0847 2597 85.9094 2597C85.7341 2597 85.559 2597 85.3843 2597C85.2095 2597 85.0351 2597 84.8609 2597C84.6868 2597 84.5129 2597 84.3394 2597C84.1658 2597 83.9925 2597 83.8196 2597C83.6466 2597 83.4739 2597 83.3016 2597C83.1292 2597 82.9571 2597 82.7854 2597C82.6136 2597 82.4421 2597 82.271 2597C82.0998 2597 81.929 2597 81.7584 2597C81.5878 2597 81.4176 2597 81.2477 2597C81.0777 2597 80.9081 2597 80.7388 2597C80.5695 2597 80.4004 2597 80.2317 2597C80.063 2597 79.8946 2597 79.7266 2597C79.5585 2597 79.3907 2597 79.2233 2597C79.0558 2597 78.8887 2597 78.7219 2597C78.5551 2597 78.3886 2597 78.2224 2597C78.0562 2597 77.8904 2597 77.7248 2597C77.5593 2597 77.3941 2597 77.2292 2597C77.0643 2597 76.8997 2597 76.7354 2597C76.5712 2597 76.4073 2597 76.2437 2597C76.0801 2597 75.9168 2597 75.7539 2597C75.5909 2597 75.4283 2597 75.266 2597C75.1037 2597 74.9418 2597 74.7801 2597C74.6185 2597 74.4572 2597 74.2963 2597C74.1353 2597 73.9747 2597 73.8144 2597C73.6541 2597 73.4942 2597 73.3346 2597C73.1749 2597 73.0157 2597 72.8567 2597C72.6978 2597 72.5392 2597 72.381 2597C72.2227 2597 72.0648 2597 71.9072 2597C71.7497 2597 71.5924 2597 71.4355 2597C71.2787 2597 71.1221 2597 70.9659 2597C70.8098 2597 70.6539 2597 70.4984 2597C70.3429 2597 70.1878 2597 70.033 2597C69.8782 2597 69.7238 2597 69.5697 2597C69.4156 2597 69.2619 2597 69.1085 2597C68.9551 2597 68.8021 2597 68.6494 2597C68.4967 2597 68.3444 2597 68.1925 2597C68.0405 2597 67.8889 2597 67.7377 2597C67.5865 2597 67.4356 2597 67.2851 2597C67.1346 2597 66.9844 2597 66.8346 2597C66.6849 2597 66.5354 2597 66.3864 2597C66.2373 2597 66.0886 2597 65.9403 2597C65.792 2597 65.644 2597 65.4965 2597C65.3489 2597 65.2017 2597 65.0548 2597C64.908 2597 64.7615 2597 64.6154 2597C64.4693 2597 64.3236 2597 64.1783 2597C64.0329 2597 63.888 2597 63.7434 2597C63.5988 2597 63.4545 2597 63.3107 2597C63.1669 2597 63.0234 2597 62.8803 2597C62.7373 2597 62.5946 2597 62.4523 2597C62.31 2597 62.168 2597 62.0265 2597C61.8849 2597 61.7438 2597 61.603 2597C61.4622 2597 61.3219 2597 61.1819 2597C61.0419 2597 60.9023 2597 60.763 2597C60.6238 2597 60.485 2597 60.3466 2597C60.2081 2597 60.0701 2597 59.9324 2597C59.7948 2597 59.6576 2597 59.5207 2597C59.3838 2597 59.2474 2597 59.1113 2597C58.9753 2597 58.8396 2597 58.7043 2597C58.5691 2597 58.4342 2597 58.2998 2597C58.1653 2597 58.0312 2597 57.8976 2597C57.7639 2597 57.6307 2597 57.4978 2597C57.365 2597 57.2325 2597 57.1005 2597C56.9685 2597 56.8369 2597 56.7056 2597C56.5744 2597 56.4436 2597 56.3132 2597C56.1828 2597 56.0529 2597 55.9233 2597C55.7937 2597 55.6646 2597 55.5358 2597C55.4071 2597 55.2788 2597 55.1509 2597C55.0229 2597 54.8955 2597 54.7684 2597C54.6413 2597 54.5147 2597 54.3884 2597C54.2622 2597 54.1364 2597 54.011 2597C53.8856 2597 53.7606 2597 53.6361 2597C53.5116 2597 53.3874 2597 53.2638 2597C53.1401 2597 53.0168 2597 52.894 2597C52.7711 2597 52.6487 2597 52.5268 2597C52.4048 2597 52.2832 2597 52.1621 2597C52.041 2597 51.9203 2597 51.8001 2597C51.6798 2597 51.56 2597 51.4406 2597C51.3213 2597 51.2023 2597 51.0838 2597C50.9653 2597 50.8473 2597 50.7296 2597C50.612 2597 50.4948 2597 50.3781 2597C50.2613 2597 50.145 2597 50.0292 2597C49.9133 2597 49.7979 2597 49.6829 2597C49.5679 2597 49.4534 2597 49.3393 2597C49.2253 2597 49.1116 2597 48.9985 2597C48.8853 2597 48.7725 2597 48.6603 2597C48.548 2597 48.4361 2597 48.3248 2597C48.2134 2597 48.1025 2597 47.992 2597C47.8815 2597 47.7715 2597 47.662 2597C47.5524 2597 47.4433 2597 47.3347 2597C47.226 2597 47.1178 2597 47.0101 2597C46.9024 2597 46.7951 2597 46.6883 2597C46.5815 2597 46.4752 2597 46.3693 2597C46.2634 2597 46.158 2597 46.0531 2597C45.9481 2597 45.8437 2597 45.7397 2597C45.6357 2597 45.5321 2597 45.429 2597C45.326 2597 45.2234 2597 45.1212 2597C45.0191 2597 44.9175 2597 44.8163 2597C44.7151 2597 44.6144 2597 44.5141 2597C44.4139 2597 44.3142 2597 44.2149 2597C44.1156 2597 44.0168 2597 43.9185 2597C43.8201 2597 43.7223 2597 43.6249 2597C43.5276 2597 43.4307 2597 43.3343 2597C43.2379 2597 43.142 2597 43.0465 2597C42.9511 2597 42.8562 2597 42.7617 2597C42.6672 2597 42.5733 2597 42.4798 2597C42.3863 2597 42.2933 2597 42.2008 2597C42.1083 2597 42.0163 2597 41.9248 2597C41.8333 2597 41.7422 2597 41.6517 2597C41.5612 2597 41.4711 2597 41.3816 2597C41.292 2597 41.203 2597 41.1144 2597C41.0259 2597 40.9378 2597 40.8503 2597C40.7627 2597 40.6757 2597 40.5891 2597C40.5026 2597 40.4166 2597 40.331 2597C40.2455 2597 40.1604 2597 40.0759 2597C39.9914 2597 39.9073 2597 39.8238 2597C39.7403 2597 39.6573 2597 39.5748 2597C39.4923 2597 39.4103 2597 39.3288 2597C39.2473 2597 39.1664 2597 39.0859 2597C39.0055 2597 38.9255 2597 38.8461 2597C38.7667 2597 38.6878 2597 38.6094 2597C38.531 2597 38.4531 2597 38.3757 2597C38.2984 2597 38.2215 2597 38.1452 2597C38.0689 2597 37.9931 2597 37.9178 2597C37.8426 2597 37.7678 2597 37.6936 2597C37.6194 2597 37.5457 2597 37.4725 2597C37.3993 2597 37.3267 2597 37.2545 2597C37.1824 2597 37.1108 2597 37.0398 2597C36.9687 2597 36.8982 2597 36.8282 2597C36.7582 2597 36.6887 2597 36.6198 2597C36.5509 2597 36.4825 2597 36.4146 2597C36.3467 2597 36.2794 2597 36.2126 2597C36.1458 2597 36.0796 2597 36.0139 2597C35.9482 2597 35.883 2597 35.8184 2597C35.7537 2597 35.6896 2597 35.6261 2597C35.5626 2597 35.4996 2597 35.4371 2597C35.3746 2597 35.3127 2597 35.2514 2597C35.19 2597 35.1292 2597 35.0689 2597C35.0087 2597 34.949 2597 34.8898 2597C34.8306 2597 34.772 2597 34.7139 2597C34.6559 2597 34.5984 2597 34.5414 2597C34.4845 2597 34.4281 2597 34.3722 2597C34.3164 2597 34.2611 2597 34.2064 2597C34.1517 2597 34.0975 2597 34.0439 2597C33.9903 2597 33.9372 2597 33.8847 2597C33.8323 2597 33.7803 2597 33.729 2597C33.6776 2597 33.6268 2597 33.5766 2597C33.5264 2597 33.4767 2597 33.4276 2597C33.3785 2597 33.33 2597 33.2821 2597C33.2341 2597 33.1867 2597 33.1399 2597C33.0931 2597 33.0469 2597 33.0012 2597C32.9555 2597 32.9104 2597 32.8659 2597C32.8214 2597 32.7775 2597 32.7341 2597C32.6907 2597 32.648 2597 32.6057 2597C32.5635 2597 32.5219 2597 32.4809 2597C32.4398 2597 32.3994 2597 32.3595 2597C32.3196 2597 32.2803 2597 32.2416 2597C32.2029 2597 32.1647 2597 32.1272 2597C32.0897 2597 32.0527 2597 32.0163 2597C31.98 2597 31.9442 2597 31.909 2597C31.8738 2597 31.8392 2597 31.8052 2597C31.7712 2597 31.7378 2597 31.705 2597C31.6722 2597 31.64 2597 31.6084 2597C31.5767 2597 31.5457 2597 31.5153 2597C31.4848 2597 31.455 2597 31.4258 2597C31.3966 2597 31.3679 2597 31.3399 2597C31.3119 2597 31.2844 2597 31.2576 2597C31.2308 2597 31.2046 2597 31.179 2597C31.1534 2597 31.1283 2597 31.1039 2597C31.0795 2597 31.0558 2597 31.0326 2597V2598Z" fill="#F9C436"/>
</svg>
