<svg width="201" height="91" viewBox="0 0 201 91" fill="none" xmlns="http://www.w3.org/2000/svg">
<g clip-path="url(#clip0_268_1808)">
<path fill-rule="evenodd" clip-rule="evenodd" d="M61.0831 57.2681H42.1834C38.7422 57.2681 35.9243 59.9826 35.9243 63.3003V81.5046C35.9243 84.8223 38.7422 87.5368 42.1834 87.5368H61.0831C64.5189 87.5368 67.3421 84.8223 67.3421 81.5046V63.3003C67.3421 59.9826 64.5242 57.2681 61.0831 57.2681Z" fill="white"/>
<path fill-rule="evenodd" clip-rule="evenodd" d="M97.0073 57.2681H78.1182C74.6824 57.2681 71.8645 59.9826 71.8645 63.3003V81.5046C71.8645 84.8223 74.6824 87.5368 78.1182 87.5368H97.0073C100.443 87.5368 103.266 84.8223 103.266 81.5046V63.3003C103.266 59.9826 100.443 57.2681 97.0073 57.2681Z" fill="white"/>
<path fill-rule="evenodd" clip-rule="evenodd" d="M25.1534 57.2681H6.25906C2.81258 57.2681 0 59.9826 0 63.3003V81.5046C0 84.8223 2.81258 87.5368 6.25906 87.5368H25.1534C28.5946 87.5368 31.4071 84.8223 31.4071 81.5046V63.3003C31.4071 59.9826 28.5946 57.2681 25.1534 57.2681Z" fill="white"/>
<path d="M161.43 39.5002V13.2602C161.43 5.13286 156.168 0.140137 146.776 0.140137C140.704 0.140137 135.537 1.92287 132.942 3.42015C130.423 1.77745 126.577 0.140137 119.924 0.140137C113.276 0.140137 107.869 1.42736 103.581 2.99466V39.5002H117.926V11.4828C118.746 11.1274 119.636 10.9873 120.957 10.9873C123.919 10.9873 125.325 12.4792 125.325 14.9082V39.5002H139.676V11.4828C140.491 11.1274 141.524 10.9873 142.712 10.9873C145.663 10.9873 147.075 12.4792 147.075 14.9082V39.5002H161.43Z" fill="white"/>
<path d="M98.616 39.5002V13.2601C98.616 5.13821 93.3637 0.150879 83.9725 0.150879C77.9052 0.150879 72.7275 1.92822 70.1386 3.4255C67.619 1.7828 63.773 0.150879 57.1145 0.150879C50.4559 0.150879 45.0598 1.43272 40.7664 3.00001V39.5002H55.1222V11.4828C55.9266 11.1273 56.8215 10.9873 58.1532 10.9873C61.1149 10.9873 62.5212 12.4792 62.5212 14.9082V39.5002H76.8718V11.4828C77.6815 11.1273 78.7255 10.9873 79.9081 10.9873C82.8645 10.9873 84.2708 12.4792 84.2708 14.9082V39.5002H98.6213H98.616Z" fill="white"/>
<path d="M22.3408 30.662C21.7496 30.8774 20.4125 30.9475 19.1607 30.9475C15.7568 30.9475 13.3225 29.6656 13.3225 27.0319C13.3225 23.6819 16.5772 22.8955 22.3462 22.6747V30.662H22.3408ZM35.8018 14.9729C35.8071 -4.13085 13.2852 -1.12552 0.548666 3.53866C2.50895 5.46681 3.8673 8.16514 3.78207 12.4415C3.78207 12.4415 22.3408 6.03771 22.3408 13.1902V14.1812C13.8498 14.6982 0 16.1632 0 27.382C0 35.8594 6.44017 40.4374 19.6082 40.4374C26.336 40.4374 32.6962 39.0694 35.8018 37.5775V14.9729Z" fill="white"/>
<path d="M186.999 30.662C186.403 30.8774 185.082 30.9475 183.814 30.9475C180.415 30.9475 177.976 29.6656 177.976 27.0319C177.976 23.6819 181.22 22.8956 186.994 22.6747V30.662H186.999ZM200.46 14.9729C200.46 -4.13085 177.938 -1.12552 165.202 3.53866C167.162 5.46681 168.52 8.16514 168.43 12.4415C168.43 12.4415 186.994 6.03772 186.994 13.1902V14.1812C178.503 14.6928 164.648 16.1578 164.648 27.3712C164.648 35.854 171.093 40.4266 184.251 40.4266C190.989 40.4266 197.349 39.064 200.455 37.5667V14.9729H200.46Z" fill="white"/>
<path d="M200.46 85.808C199.107 84.44 198.18 82.5388 198.196 79.6089C197.903 79.6304 197.584 79.7058 197.243 79.8674C195.879 80.5137 194.718 80.8315 193.738 80.8315C192.864 80.8315 192.14 80.5676 191.543 80.0451C190.957 79.5227 190.669 78.7956 190.669 77.8585V69.3595H198.17C198.356 69.3595 198.505 69.3164 198.665 69.2895V62.6918C198.5 62.6541 198.34 62.611 198.143 62.611H190.643V53.8428H181.284V62.611H177.906C177.736 62.611 177.597 62.6541 177.443 62.6918V69.2787C177.603 69.3164 177.747 69.3595 177.933 69.3595H181.31V78.6663C181.31 81.4078 182.264 83.5675 184.197 85.1563C186.131 86.7452 188.789 87.5315 192.193 87.5315C195.08 87.5315 197.839 86.9552 200.466 85.808H200.46Z" fill="white"/>
<path d="M138.765 60.4027C136.41 58.3129 132.996 57.2627 128.521 57.2627C126.263 57.2627 124.281 57.5374 122.566 58.0814C119.7 58.5822 117.079 59.2716 114.863 60.0741V90.9514H124.206V83.6859C125.005 84.4668 126.012 85.097 127.232 85.5925C128.441 86.088 129.768 86.325 131.185 86.325C134.647 86.325 137.337 85.2532 139.281 83.1096C141.22 80.966 142.174 77.9553 142.174 74.0559L142.28 74.002V68.5892C142.28 65.2123 141.114 62.4924 138.765 60.4027ZM132.788 73.0918C132.788 75.397 132.452 77.0451 131.781 78.063C131.105 79.0809 129.895 79.5764 128.132 79.5764C127.328 79.5764 126.555 79.3718 125.804 78.9194C125.059 78.4777 124.515 77.8745 124.18 77.1205V74.4329H124.137V64.3451C125.037 63.9466 126.033 63.7904 127.514 63.7904C128.606 63.7904 129.443 64.0274 130.156 64.3721C130.348 64.4367 130.492 64.566 130.657 64.6575C130.876 64.8083 131.105 64.9322 131.286 65.1153C131.403 65.223 131.568 65.2661 131.675 65.3954C132.399 66.2841 132.761 67.6736 132.761 69.5533H132.788V73.0918Z" fill="white"/>
<path d="M170.497 60.5642C167.935 58.356 164.456 57.2681 160.035 57.2681C158.602 57.2681 157.302 57.4296 156.056 57.672C152.151 58.1406 148.63 59.0239 145.77 60.0687V75.4831C145.77 79.221 147.064 82.1617 149.653 84.3214C152.242 86.4757 156.045 87.5368 161.031 87.5368C164.973 87.5098 168.702 86.6104 172.217 84.8277C170.987 83.5081 170.129 81.6985 170.177 78.9301C169.879 78.9463 169.554 79.0217 169.197 79.1886C166.342 80.5243 163.726 81.176 161.383 81.176C159.518 81.176 158.091 80.7452 157.068 79.8996C156.045 79.054 155.534 77.5567 155.534 75.397L155.56 75.2893V74.7991H172.356C172.979 74.7991 173.464 74.6376 173.815 74.2875C174.167 73.932 174.321 73.4419 174.321 72.8117V69.0201C174.321 65.5839 173.059 62.7778 170.497 60.5642ZM164.541 69.9734H155.539L155.507 64.0435C156.407 63.645 157.387 63.4942 158.863 63.4942C159.87 63.4942 160.669 63.6988 161.356 63.995C162.15 64.2213 162.853 64.5713 163.353 65.2069C164.137 66.1925 164.541 67.6574 164.541 69.6233V69.9788V69.9734Z" fill="white"/>
</g>
<defs>
<clipPath id="clip0_268_1808">
<rect width="200.46" height="91" fill="white"/>
</clipPath>
</defs>
</svg>
