<svg width="1353" height="2900" viewBox="0 0 1353 2900" fill="none" xmlns="http://www.w3.org/2000/svg">
<path d="M1341 0.452994L1329.45 12L1341 23.547L1352.55 12L1341 0.452994ZM1341 610.005L1343 610.023L1343 610.014V610.005H1341ZM116.5 672.743L116.504 670.743H116.5V672.743ZM64.5 1416.64H62.5V1416.91L62.5739 1417.18L64.5 1416.64ZM136 1463.29V1461.29H135.931L135.863 1461.29L136 1463.29ZM1280.02 2115.56L1280.23 2113.57L1280.12 2113.56L1280.01 2113.56L1280.02 2115.56ZM75.5 2120.2L75.4738 2122.2L75.4908 2122.2H75.5078L75.5 2120.2ZM42.5 2161.03H44.5V2160.91L44.4856 2160.79L42.5 2161.03ZM42.5 2823.27L44.4789 2823.56L44.5 2823.42V2823.27H42.5ZM1352.55 2888L1341 2876.45L1329.45 2888L1341 2899.55L1352.55 2888ZM1339 12V610.005H1343V12H1339ZM1339 609.987C1338.92 618.689 1335.39 633.474 1325.97 646.283C1316.61 659.008 1301.44 669.797 1277.92 670.745L1278.08 674.741C1302.94 673.74 1319.19 662.259 1329.19 648.653C1339.14 635.13 1342.91 619.52 1343 610.023L1339 609.987ZM1277.92 670.745C1229.59 672.692 485.75 671.556 116.504 670.743L116.496 674.743C485.645 675.555 1229.64 676.694 1278.08 674.741L1277.92 670.745ZM116.5 670.743C95.749 670.743 81.1862 680.873 71.8789 693.755C62.622 706.567 58.5 722.167 58.5 733.49H62.5C62.5 722.972 66.3781 708.199 75.1212 696.098C83.8139 684.066 97.2511 674.743 116.5 674.743V670.743ZM58.5 733.49C58.5 744.419 59.5002 863.102 60.5001 1005.09C61.5001 1147.08 62.5 1312.4 62.5 1416.64H66.5C66.5 1312.39 65.5 1147.05 64.5 1005.06C63.4999 863.048 62.5 744.4 62.5 733.49H58.5ZM62.5739 1417.18C65.5601 1427.86 69.3512 1441.03 79.834 1450.92C90.4013 1460.9 107.405 1467.26 136.137 1465.28L135.863 1461.29C107.816 1463.22 92.0685 1456.98 82.5801 1448.02C73.0071 1438.98 69.4378 1426.87 66.4262 1416.1L62.5739 1417.18ZM136 1465.29H1280.02V1461.29H136V1465.29ZM1280.02 1465.29C1300.79 1465.29 1315.29 1469.47 1324.55 1476.41C1333.73 1483.27 1338 1493.01 1338 1504.77H1342C1342 1491.93 1337.27 1480.93 1326.95 1473.2C1316.72 1465.55 1301.23 1461.29 1280.02 1461.29V1465.29ZM1338 1504.77C1338 1513.55 1338.25 1610.43 1338.5 1728.7C1338.75 1846.97 1339 1986.62 1339 2080.95H1343C1343 1986.62 1342.75 1846.96 1342.5 1728.69C1342.25 1610.42 1342 1513.54 1342 1504.77H1338ZM1339 2080.95C1339 2089.71 1336.27 2098.97 1327.84 2105.48C1319.36 2112.04 1304.72 2116.12 1280.23 2113.57L1279.82 2117.55C1304.8 2120.15 1320.65 2116.09 1330.29 2108.64C1339.98 2101.15 1343 2090.53 1343 2080.95H1339ZM1280.01 2113.56L75.4923 2118.2L75.5078 2122.2L1280.03 2117.56L1280.01 2113.56ZM75.5262 2118.2C68.8479 2118.12 59.083 2120.15 51.4543 2126.63C43.7065 2133.22 38.4456 2144.17 40.5145 2161.27L44.4856 2160.79C42.5545 2144.83 47.4603 2135.28 54.0458 2129.68C60.7504 2123.98 69.4855 2122.12 75.4738 2122.2L75.5262 2118.2ZM40.5 2161.03V2823.27H44.5V2161.03H40.5ZM40.5212 2822.98C38.8864 2834.12 40.2093 2850.84 49.6017 2864.84C59.0791 2878.97 76.5491 2890 106.5 2890V2886C77.6514 2886 61.538 2875.45 52.9236 2862.61C44.2243 2849.64 42.9471 2834 44.4789 2823.56L40.5212 2822.98ZM106.5 2890C106.615 2890 106.733 2890 106.853 2890C106.974 2890 107.097 2890 107.223 2890C107.349 2890 107.477 2890 107.609 2890C107.74 2890 107.874 2890 108.011 2890C108.148 2890 108.288 2890 108.431 2890C108.573 2890 108.718 2890 108.866 2890C109.014 2890 109.165 2890 109.318 2890C109.472 2890 109.628 2890 109.787 2890C109.946 2890 110.107 2890 110.271 2890C110.436 2890 110.603 2890 110.772 2890C110.942 2890 111.115 2890 111.29 2890C111.465 2890 111.642 2890 111.823 2890C112.003 2890 112.186 2890 112.372 2890C112.558 2890 112.747 2890 112.938 2890C113.129 2890 113.323 2890 113.519 2890C113.716 2890 113.915 2890 114.117 2890C114.318 2890 114.523 2890 114.73 2890C114.937 2890 115.147 2890 115.359 2890C115.571 2890 115.786 2890 116.004 2890C116.222 2890 116.442 2890 116.665 2890C116.887 2890 117.113 2890 117.341 2890C117.569 2890 117.8 2890 118.033 2890C118.266 2890 118.502 2890 118.741 2890C118.979 2890 119.22 2890 119.464 2890C119.707 2890 119.954 2890 120.202 2890C120.451 2890 120.703 2890 120.957 2890C121.21 2890 121.467 2890 121.726 2890C121.985 2890 122.247 2890 122.511 2890C122.775 2890 123.042 2890 123.311 2890C123.58 2890 123.852 2890 124.126 2890C124.401 2890 124.677 2890 124.957 2890C125.236 2890 125.518 2890 125.802 2890C126.087 2890 126.374 2890 126.663 2890C126.953 2890 127.245 2890 127.539 2890C127.833 2890 128.13 2890 128.43 2890C128.729 2890 129.031 2890 129.336 2890C129.64 2890 129.947 2890 130.256 2890C130.565 2890 130.877 2890 131.192 2890C131.506 2890 131.823 2890 132.142 2890C132.461 2890 132.783 2890 133.107 2890C133.431 2890 133.757 2890 134.086 2890C134.415 2890 134.747 2890 135.081 2890C135.415 2890 135.751 2890 136.09 2890C136.428 2890 136.769 2890 137.113 2890C137.456 2890 137.802 2890 138.151 2890C138.499 2890 138.85 2890 139.203 2890C139.556 2890 139.912 2890 140.27 2890C140.628 2890 140.988 2890 141.351 2890C141.713 2890 142.079 2890 142.446 2890C142.813 2890 143.183 2890 143.556 2890C143.928 2890 144.302 2890 144.679 2890C145.056 2890 145.435 2890 145.817 2890C146.199 2890 146.583 2890 146.969 2890C147.355 2890 147.744 2890 148.135 2890C148.526 2890 148.919 2890 149.315 2890C149.71 2890 150.108 2890 150.508 2890C150.909 2890 151.311 2890 151.716 2890C152.121 2890 152.528 2890 152.938 2890C153.347 2890 153.759 2890 154.173 2890C154.587 2890 155.003 2890 155.422 2890C155.841 2890 156.261 2890 156.685 2890C157.108 2890 157.533 2890 157.961 2890C158.389 2890 158.819 2890 159.251 2890C159.683 2890 160.117 2890 160.554 2890C160.991 2890 161.43 2890 161.871 2890C162.312 2890 162.756 2890 163.201 2890C163.647 2890 164.095 2890 164.545 2890C164.995 2890 165.447 2890 165.902 2890C166.356 2890 166.813 2890 167.272 2890C167.731 2890 168.192 2890 168.655 2890C169.119 2890 169.584 2890 170.052 2890C170.52 2890 170.99 2890 171.462 2890C171.934 2890 172.408 2890 172.885 2890C173.361 2890 173.84 2890 174.32 2890C174.801 2890 175.284 2890 175.769 2890C176.254 2890 176.741 2890 177.231 2890C177.72 2890 178.212 2890 178.705 2890C179.199 2890 179.695 2890 180.193 2890C180.69 2890 181.191 2890 181.693 2890C182.195 2890 182.699 2890 183.206 2890C183.712 2890 184.22 2890 184.731 2890C185.242 2890 185.754 2890 186.269 2890C186.784 2890 187.301 2890 187.82 2890C188.339 2890 188.86 2890 189.383 2890C189.906 2890 190.431 2890 190.958 2890C191.486 2890 192.015 2890 192.546 2890C193.078 2890 193.611 2890 194.147 2890C194.682 2890 195.22 2890 195.759 2890C196.299 2890 196.841 2890 197.384 2890C197.928 2890 198.474 2890 199.021 2890C199.569 2890 200.119 2890 200.671 2890C201.222 2890 201.776 2890 202.332 2890C202.888 2890 203.446 2890 204.005 2890C204.565 2890 205.127 2890 205.691 2890C206.255 2890 206.821 2890 207.388 2890C207.956 2890 208.526 2890 209.098 2890C209.669 2890 210.243 2890 210.819 2890C211.394 2890 211.972 2890 212.552 2890C213.131 2890 213.713 2890 214.296 2890C214.88 2890 215.465 2890 216.053 2890C216.64 2890 217.229 2890 217.821 2890C218.412 2890 219.005 2890 219.6 2890C220.195 2890 220.793 2890 221.392 2890C221.99 2890 222.591 2890 223.194 2890C223.797 2890 224.402 2890 225.008 2890C225.615 2890 226.223 2890 226.834 2890C227.444 2890 228.056 2890 228.671 2890C229.285 2890 229.901 2890 230.519 2890C231.137 2890 231.756 2890 232.378 2890C233 2890 233.623 2890 234.249 2890C234.874 2890 235.501 2890 236.13 2890C236.76 2890 237.39 2890 238.023 2890C238.656 2890 239.291 2890 239.927 2890C240.564 2890 241.202 2890 241.842 2890C242.482 2890 243.124 2890 243.768 2890C244.411 2890 245.057 2890 245.704 2890C246.352 2890 247.001 2890 247.652 2890C248.303 2890 248.956 2890 249.61 2890C250.265 2890 250.921 2890 251.579 2890C252.237 2890 252.897 2890 253.559 2890C254.221 2890 254.884 2890 255.549 2890C256.214 2890 256.881 2890 257.55 2890C258.219 2890 258.889 2890 259.562 2890C260.234 2890 260.908 2890 261.584 2890C262.259 2890 262.937 2890 263.616 2890C264.295 2890 264.976 2890 265.659 2890C266.341 2890 267.026 2890 267.712 2890C268.398 2890 269.086 2890 269.775 2890C270.465 2890 271.156 2890 271.849 2890C272.542 2890 273.236 2890 273.933 2890C274.629 2890 275.327 2890 276.027 2890C276.726 2890 277.428 2890 278.131 2890C278.834 2890 279.538 2890 280.245 2890C280.951 2890 281.659 2890 282.369 2890C283.078 2890 283.79 2890 284.503 2890C285.215 2890 285.93 2890 286.646 2890C287.363 2890 288.08 2890 288.8 2890C289.52 2890 290.241 2890 290.963 2890C291.686 2890 292.411 2890 293.137 2890C293.863 2890 294.59 2890 295.319 2890C296.049 2890 296.779 2890 297.512 2890C298.244 2890 298.978 2890 299.714 2890C300.449 2890 301.187 2890 301.925 2890C302.664 2890 303.404 2890 304.146 2890C304.888 2890 305.632 2890 306.377 2890C307.122 2890 307.868 2890 308.617 2890C309.365 2890 310.114 2890 310.866 2890C311.617 2890 312.37 2890 313.124 2890C313.878 2890 314.634 2890 315.392 2890C316.149 2890 316.908 2890 317.668 2890C318.429 2890 319.191 2890 319.954 2890C320.718 2890 321.483 2890 322.249 2890C323.016 2890 323.784 2890 324.553 2890C325.323 2890 326.094 2890 326.866 2890C327.639 2890 328.413 2890 329.188 2890C329.964 2890 330.74 2890 331.519 2890C332.297 2890 333.077 2890 333.858 2890C334.64 2890 335.422 2890 336.207 2890C336.991 2890 337.777 2890 338.564 2890C339.351 2890 340.139 2890 340.929 2890C341.719 2890 342.511 2890 343.304 2890C344.097 2890 344.891 2890 345.687 2890C346.482 2890 347.279 2890 348.078 2890C348.876 2890 349.676 2890 350.478 2890C351.279 2890 352.082 2890 352.886 2890C353.69 2890 354.496 2890 355.303 2890C356.109 2890 356.918 2890 357.727 2890C358.537 2890 359.348 2890 360.161 2890C360.973 2890 361.787 2890 362.602 2890C363.417 2890 364.234 2890 365.052 2890C365.869 2890 366.689 2890 367.509 2890C368.33 2890 369.152 2890 369.975 2890C370.798 2890 371.623 2890 372.449 2890C373.274 2890 374.102 2890 374.93 2890C375.759 2890 376.589 2890 377.42 2890C378.251 2890 379.083 2890 379.917 2890C380.751 2890 381.586 2890 382.422 2890C383.259 2890 384.096 2890 384.935 2890C385.774 2890 386.615 2890 387.456 2890C388.298 2890 389.14 2890 389.984 2890C390.828 2890 391.674 2890 392.52 2890C393.367 2890 394.215 2890 395.064 2890C395.913 2890 396.763 2890 397.615 2890C398.466 2890 399.319 2890 400.173 2890C401.027 2890 401.882 2890 402.739 2890C403.595 2890 404.453 2890 405.312 2890C406.171 2890 407.031 2890 407.893 2890C408.754 2890 409.617 2890 410.48 2890C411.344 2890 412.209 2890 413.075 2890C413.941 2890 414.809 2890 415.677 2890C416.546 2890 417.415 2890 418.286 2890C419.157 2890 420.029 2890 420.903 2890C421.776 2890 422.65 2890 423.526 2890C424.401 2890 425.278 2890 426.156 2890C427.034 2890 427.913 2890 428.793 2890C429.673 2890 430.554 2890 431.437 2890C432.319 2890 433.203 2890 434.087 2890C434.972 2890 435.858 2890 436.745 2890C437.632 2890 438.52 2890 439.409 2890C440.298 2890 441.188 2890 442.08 2890C442.971 2890 443.863 2890 444.757 2890C445.65 2890 446.545 2890 447.441 2890C448.336 2890 449.233 2890 450.131 2890C451.029 2890 451.928 2890 452.828 2890C453.728 2890 454.629 2890 455.531 2890C456.433 2890 457.336 2890 458.24 2890C459.145 2890 460.05 2890 460.956 2890C461.862 2890 462.77 2890 463.678 2890C464.587 2890 465.496 2890 466.406 2890C467.317 2890 468.228 2890 469.141 2890C470.053 2890 470.967 2890 471.881 2890C472.796 2890 473.711 2890 474.628 2890C475.544 2890 476.462 2890 477.38 2890C478.298 2890 479.218 2890 480.138 2890C481.059 2890 481.98 2890 482.903 2890C483.825 2890 484.748 2890 485.673 2890C486.597 2890 487.522 2890 488.448 2890C489.375 2890 490.302 2890 491.23 2890C492.158 2890 493.087 2890 494.017 2890C494.947 2890 495.878 2890 496.81 2890C497.742 2890 498.675 2890 499.609 2890C500.542 2890 501.477 2890 502.413 2890C503.348 2890 504.285 2890 505.222 2890C506.159 2890 507.098 2890 508.037 2890C508.976 2890 509.916 2890 510.857 2890C511.798 2890 512.74 2890 513.683 2890C514.626 2890 515.569 2890 516.514 2890C517.458 2890 518.404 2890 519.35 2890C520.296 2890 521.243 2890 522.191 2890C523.139 2890 524.088 2890 525.037 2890C525.987 2890 526.938 2890 527.889 2890C528.84 2890 529.792 2890 530.745 2890C531.698 2890 532.652 2890 533.607 2890C534.561 2890 535.517 2890 536.473 2890C537.429 2890 538.386 2890 539.344 2890C540.302 2890 541.261 2890 542.22 2890C543.18 2890 544.14 2890 545.101 2890C546.062 2890 547.024 2890 547.987 2890C548.949 2890 549.913 2890 550.877 2890C551.841 2890 552.806 2890 553.772 2890C554.737 2890 555.704 2890 556.671 2890C557.638 2890 558.606 2890 559.575 2890C560.544 2890 561.513 2890 562.483 2890C563.453 2890 564.424 2890 565.396 2890C566.368 2890 567.34 2890 568.313 2890C569.286 2890 570.26 2890 571.235 2890C572.209 2890 573.184 2890 574.16 2890C575.136 2890 576.113 2890 577.09 2890C578.068 2890 579.046 2890 580.024 2890C581.003 2890 581.982 2890 582.963 2890C583.943 2890 584.923 2890 585.905 2890C586.886 2890 587.868 2890 588.851 2890C589.834 2890 590.817 2890 591.801 2890C592.785 2890 593.77 2890 594.755 2890C595.741 2890 596.727 2890 597.713 2890C598.7 2890 599.687 2890 600.675 2890C601.663 2890 602.652 2890 603.641 2890C604.63 2890 605.62 2890 606.61 2890C607.6 2890 608.591 2890 609.583 2890C610.574 2890 611.567 2890 612.559 2890C613.552 2890 614.545 2890 615.539 2890C616.533 2890 617.528 2890 618.523 2890C619.518 2890 620.514 2890 621.51 2890C622.506 2890 623.503 2890 624.5 2890C625.498 2890 626.496 2890 627.494 2890C628.493 2890 629.492 2890 630.491 2890C631.491 2890 632.491 2890 633.492 2890C634.492 2890 635.493 2890 636.495 2890C637.497 2890 638.499 2890 639.502 2890C640.504 2890 641.508 2890 642.511 2890C643.515 2890 644.52 2890 645.524 2890C646.529 2890 647.534 2890 648.54 2890C649.546 2890 650.552 2890 651.559 2890C652.566 2890 653.573 2890 654.581 2890C655.588 2890 656.596 2890 657.605 2890C658.614 2890 659.623 2890 660.632 2890C661.642 2890 662.652 2890 663.662 2890C664.673 2890 665.684 2890 666.695 2890C667.706 2890 668.718 2890 669.73 2890C670.743 2890 671.755 2890 672.768 2890C673.781 2890 674.795 2890 675.809 2890C676.823 2890 677.837 2890 678.852 2890C679.867 2890 680.882 2890 681.897 2890C682.913 2890 683.929 2890 684.945 2890C685.962 2890 686.978 2890 687.995 2890C689.013 2890 690.03 2890 691.048 2890C692.066 2890 693.084 2890 694.103 2890C695.121 2890 696.14 2890 697.159 2890C698.179 2890 699.198 2890 700.218 2890C701.238 2890 702.259 2890 703.28 2890C704.3 2890 705.321 2890 706.343 2890C707.364 2890 708.386 2890 709.408 2890C710.43 2890 711.452 2890 712.475 2890C713.498 2890 714.521 2890 715.544 2890C716.567 2890 717.591 2890 718.615 2890C719.638 2890 720.663 2890 721.687 2890C722.712 2890 723.736 2890 724.761 2890C725.786 2890 726.812 2890 727.837 2890C728.863 2890 729.889 2890 730.915 2890C731.941 2890 732.968 2890 733.994 2890C735.021 2890 736.048 2890 737.075 2890C738.102 2890 739.13 2890 740.157 2890C741.185 2890 742.213 2890 743.241 2890C744.269 2890 745.297 2890 746.326 2890C747.354 2890 748.383 2890 749.412 2890C750.441 2890 751.47 2890 752.5 2890C753.529 2890 754.559 2890 755.589 2890C756.618 2890 757.648 2890 758.679 2890C759.709 2890 760.739 2890 761.77 2890C762.8 2890 763.831 2890 764.862 2890C765.893 2890 766.924 2890 767.955 2890C768.986 2890 770.018 2890 771.049 2890C772.081 2890 773.113 2890 774.145 2890C775.176 2890 776.208 2890 777.241 2890C778.273 2890 779.305 2890 780.337 2890C781.37 2890 782.402 2890 783.435 2890C784.468 2890 785.5 2890 786.533 2890C787.566 2890 788.599 2890 789.632 2890C790.665 2890 791.699 2890 792.732 2890C793.765 2890 794.799 2890 795.832 2890C796.866 2890 797.899 2890 798.933 2890C799.966 2890 801 2890 802.034 2890C803.068 2890 804.102 2890 805.136 2890C806.17 2890 807.203 2890 808.238 2890C809.272 2890 810.306 2890 811.34 2890C812.374 2890 813.408 2890 814.442 2890C815.477 2890 816.511 2890 817.545 2890C818.579 2890 819.614 2890 820.648 2890C821.682 2890 822.717 2890 823.751 2890C824.785 2890 825.82 2890 826.854 2890C827.888 2890 828.923 2890 829.957 2890C830.992 2890 832.026 2890 833.06 2890C834.095 2890 835.129 2890 836.163 2890C837.198 2890 838.232 2890 839.266 2890C840.3 2890 841.335 2890 842.369 2890C843.403 2890 844.437 2890 845.471 2890C846.505 2890 847.539 2890 848.573 2890C849.607 2890 850.641 2890 851.675 2890C852.709 2890 853.743 2890 854.776 2890C855.81 2890 856.844 2890 857.877 2890C858.911 2890 859.944 2890 860.978 2890C862.011 2890 863.045 2890 864.078 2890C865.111 2890 866.144 2890 867.177 2890C868.21 2890 869.243 2890 870.276 2890C871.308 2890 872.341 2890 873.374 2890C874.406 2890 875.439 2890 876.471 2890C877.503 2890 878.535 2890 879.567 2890C880.599 2890 881.631 2890 882.663 2890C883.695 2890 884.726 2890 885.758 2890C886.789 2890 887.82 2890 888.851 2890C889.882 2890 890.913 2890 891.944 2890C892.975 2890 894.005 2890 895.036 2890C896.066 2890 897.096 2890 898.126 2890C899.156 2890 900.186 2890 901.216 2890C902.245 2890 903.275 2890 904.304 2890C905.333 2890 906.362 2890 907.391 2890C908.42 2890 909.448 2890 910.477 2890C911.505 2890 912.533 2890 913.561 2890C914.589 2890 915.616 2890 916.644 2890C917.671 2890 918.698 2890 919.725 2890C920.752 2890 921.779 2890 922.805 2890C923.832 2890 924.858 2890 925.884 2890C926.91 2890 927.935 2890 928.96 2890C929.986 2890 931.011 2890 932.036 2890C933.06 2890 934.085 2890 935.109 2890C936.133 2890 937.157 2890 938.181 2890C939.204 2890 940.228 2890 941.251 2890C942.274 2890 943.296 2890 944.319 2890C945.341 2890 946.363 2890 947.385 2890C948.406 2890 949.428 2890 950.449 2890C951.47 2890 952.491 2890 953.511 2890C954.531 2890 955.551 2890 956.571 2890C957.591 2890 958.61 2890 959.629 2890C960.648 2890 961.667 2890 962.685 2890C963.703 2890 964.721 2890 965.738 2890C966.756 2890 967.773 2890 968.79 2890C969.806 2890 970.823 2890 971.839 2890C972.855 2890 973.87 2890 974.885 2890C975.9 2890 976.915 2890 977.929 2890C978.944 2890 979.958 2890 980.971 2890C981.985 2890 982.998 2890 984.01 2890C985.023 2890 986.035 2890 987.047 2890C988.059 2890 989.07 2890 990.081 2890C991.092 2890 992.103 2890 993.113 2890C994.123 2890 995.132 2890 996.141 2890C997.15 2890 998.159 2890 999.167 2890C1000.18 2890 1001.18 2890 1002.19 2890C1003.2 2890 1004.2 2890 1005.21 2890C1006.22 2890 1007.22 2890 1008.23 2890C1009.23 2890 1010.24 2890 1011.24 2890C1012.25 2890 1013.25 2890 1014.25 2890C1015.26 2890 1016.26 2890 1017.26 2890C1018.26 2890 1019.27 2890 1020.27 2890C1021.27 2890 1022.27 2890 1023.27 2890C1024.27 2890 1025.27 2890 1026.27 2890C1027.27 2890 1028.26 2890 1029.26 2890C1030.26 2890 1031.26 2890 1032.25 2890C1033.25 2890 1034.25 2890 1035.24 2890C1036.24 2890 1037.23 2890 1038.23 2890C1039.22 2890 1040.22 2890 1041.21 2890C1042.2 2890 1043.2 2890 1044.19 2890C1045.18 2890 1046.17 2890 1047.16 2890C1048.15 2890 1049.14 2890 1050.13 2890C1051.12 2890 1052.11 2890 1053.1 2890C1054.09 2890 1055.08 2890 1056.07 2890C1057.05 2890 1058.04 2890 1059.03 2890C1060.01 2890 1061 2890 1061.98 2890C1062.97 2890 1063.95 2890 1064.93 2890C1065.92 2890 1066.9 2890 1067.88 2890C1068.86 2890 1069.85 2890 1070.83 2890C1071.81 2890 1072.79 2890 1073.77 2890C1074.75 2890 1075.72 2890 1076.7 2890C1077.68 2890 1078.66 2890 1079.63 2890C1080.61 2890 1081.59 2890 1082.56 2890C1083.54 2890 1084.51 2890 1085.49 2890C1086.46 2890 1087.43 2890 1088.41 2890C1089.38 2890 1090.35 2890 1091.32 2890C1092.29 2890 1093.26 2890 1094.23 2890C1095.2 2890 1096.17 2890 1097.14 2890C1098.1 2890 1099.07 2890 1100.04 2890C1101 2890 1101.97 2890 1102.94 2890C1103.9 2890 1104.86 2890 1105.83 2890C1106.79 2890 1107.75 2890 1108.72 2890C1109.68 2890 1110.64 2890 1111.6 2890C1112.56 2890 1113.52 2890 1114.48 2890C1115.44 2890 1116.39 2890 1117.35 2890C1118.31 2890 1119.26 2890 1120.22 2890C1121.18 2890 1122.13 2890 1123.08 2890C1124.04 2890 1124.99 2890 1125.94 2890C1126.89 2890 1127.85 2890 1128.8 2890C1129.75 2890 1130.7 2890 1131.65 2890C1132.59 2890 1133.54 2890 1134.49 2890C1135.44 2890 1136.38 2890 1137.33 2890C1138.27 2890 1139.22 2890 1140.16 2890C1141.1 2890 1142.05 2890 1142.99 2890C1143.93 2890 1144.87 2890 1145.81 2890C1146.75 2890 1147.69 2890 1148.63 2890C1149.57 2890 1150.51 2890 1151.44 2890C1152.38 2890 1153.31 2890 1154.25 2890C1155.18 2890 1156.12 2890 1157.05 2890C1157.98 2890 1158.91 2890 1159.85 2890C1160.78 2890 1161.71 2890 1162.64 2890C1163.56 2890 1164.49 2890 1165.42 2890C1166.35 2890 1167.27 2890 1168.2 2890C1169.12 2890 1170.05 2890 1170.97 2890C1171.9 2890 1172.82 2890 1173.74 2890C1174.66 2890 1175.58 2890 1176.5 2890C1177.42 2890 1178.34 2890 1179.26 2890C1180.17 2890 1181.09 2890 1182 2890C1182.92 2890 1183.83 2890 1184.75 2890C1185.66 2890 1186.57 2890 1187.49 2890C1188.4 2890 1189.31 2890 1190.22 2890C1191.13 2890 1192.03 2890 1192.94 2890C1193.85 2890 1194.76 2890 1195.66 2890C1196.57 2890 1197.47 2890 1198.37 2890C1199.28 2890 1200.18 2890 1201.08 2890C1201.98 2890 1202.88 2890 1203.78 2890C1204.68 2890 1205.58 2890 1206.47 2890C1207.37 2890 1208.27 2890 1209.16 2890C1210.05 2890 1210.95 2890 1211.84 2890C1212.73 2890 1213.62 2890 1214.51 2890C1215.41 2890 1216.29 2890 1217.18 2890C1218.07 2890 1218.96 2890 1219.84 2890C1220.73 2890 1221.61 2890 1222.5 2890C1223.38 2890 1224.26 2890 1225.14 2890C1226.03 2890 1226.91 2890 1227.78 2890C1228.66 2890 1229.54 2890 1230.42 2890C1231.29 2890 1232.17 2890 1233.04 2890C1233.92 2890 1234.79 2890 1235.66 2890C1236.54 2890 1237.41 2890 1238.28 2890C1239.15 2890 1240.02 2890 1240.88 2890C1241.75 2890 1242.62 2890 1243.48 2890C1244.35 2890 1245.21 2890 1246.07 2890C1246.93 2890 1247.8 2890 1248.66 2890C1249.52 2890 1250.38 2890 1251.23 2890C1252.09 2890 1252.95 2890 1253.8 2890C1254.66 2890 1255.51 2890 1256.36 2890C1257.22 2890 1258.07 2890 1258.92 2890C1259.77 2890 1260.62 2890 1261.47 2890C1262.31 2890 1263.16 2890 1264.01 2890C1264.85 2890 1265.7 2890 1266.54 2890C1267.38 2890 1268.22 2890 1269.06 2890C1269.9 2890 1270.74 2890 1271.58 2890C1272.42 2890 1273.25 2890 1274.09 2890C1274.92 2890 1275.76 2890 1276.59 2890C1277.42 2890 1278.25 2890 1279.08 2890C1279.91 2890 1280.74 2890 1281.57 2890C1282.4 2890 1283.22 2890 1284.05 2890C1284.87 2890 1285.69 2890 1286.52 2890C1287.34 2890 1288.16 2890 1288.98 2890C1289.8 2890 1290.62 2890 1291.43 2890C1292.25 2890 1293.06 2890 1293.88 2890C1294.69 2890 1295.5 2890 1296.31 2890C1297.13 2890 1297.94 2890 1298.74 2890C1299.55 2890 1300.36 2890 1301.16 2890C1301.97 2890 1302.77 2890 1303.58 2890C1304.38 2890 1305.18 2890 1305.98 2890C1306.78 2890 1307.58 2890 1308.38 2890C1309.17 2890 1309.97 2890 1310.76 2890C1311.56 2890 1312.35 2890 1313.14 2890C1313.93 2890 1314.72 2890 1315.51 2890C1316.3 2890 1317.09 2890 1317.87 2890C1318.66 2890 1319.44 2890 1320.23 2890C1321.01 2890 1321.79 2890 1322.57 2890C1323.35 2890 1324.13 2890 1324.9 2890C1325.68 2890 1326.46 2890 1327.23 2890C1328 2890 1328.78 2890 1329.55 2890C1330.32 2890 1331.09 2890 1331.86 2890C1332.62 2890 1333.39 2890 1334.16 2890C1334.92 2890 1335.68 2890 1336.45 2890C1337.21 2890 1337.97 2890 1338.73 2890C1339.49 2890 1340.24 2890 1341 2890V2886C1340.24 2886 1339.49 2886 1338.73 2886C1337.97 2886 1337.21 2886 1336.45 2886C1335.68 2886 1334.92 2886 1334.16 2886C1333.39 2886 1332.62 2886 1331.86 2886C1331.09 2886 1330.32 2886 1329.55 2886C1328.78 2886 1328 2886 1327.23 2886C1326.46 2886 1325.68 2886 1324.9 2886C1324.13 2886 1323.35 2886 1322.57 2886C1321.79 2886 1321.01 2886 1320.23 2886C1319.44 2886 1318.66 2886 1317.87 2886C1317.09 2886 1316.3 2886 1315.51 2886C1314.72 2886 1313.93 2886 1313.14 2886C1312.35 2886 1311.56 2886 1310.76 2886C1309.97 2886 1309.17 2886 1308.38 2886C1307.58 2886 1306.78 2886 1305.98 2886C1305.18 2886 1304.38 2886 1303.58 2886C1302.77 2886 1301.97 2886 1301.16 2886C1300.36 2886 1299.55 2886 1298.74 2886C1297.94 2886 1297.13 2886 1296.31 2886C1295.5 2886 1294.69 2886 1293.88 2886C1293.06 2886 1292.25 2886 1291.43 2886C1290.62 2886 1289.8 2886 1288.98 2886C1288.16 2886 1287.34 2886 1286.52 2886C1285.69 2886 1284.87 2886 1284.05 2886C1283.22 2886 1282.4 2886 1281.57 2886C1280.74 2886 1279.91 2886 1279.08 2886C1278.25 2886 1277.42 2886 1276.59 2886C1275.76 2886 1274.92 2886 1274.09 2886C1273.25 2886 1272.42 2886 1271.58 2886C1270.74 2886 1269.9 2886 1269.06 2886C1268.22 2886 1267.38 2886 1266.54 2886C1265.7 2886 1264.85 2886 1264.01 2886C1263.16 2886 1262.31 2886 1261.47 2886C1260.62 2886 1259.77 2886 1258.92 2886C1258.07 2886 1257.22 2886 1256.36 2886C1255.51 2886 1254.66 2886 1253.8 2886C1252.95 2886 1252.09 2886 1251.23 2886C1250.38 2886 1249.52 2886 1248.66 2886C1247.8 2886 1246.93 2886 1246.07 2886C1245.21 2886 1244.35 2886 1243.48 2886C1242.62 2886 1241.75 2886 1240.88 2886C1240.02 2886 1239.15 2886 1238.28 2886C1237.41 2886 1236.54 2886 1235.66 2886C1234.79 2886 1233.92 2886 1233.04 2886C1232.17 2886 1231.29 2886 1230.42 2886C1229.54 2886 1228.66 2886 1227.78 2886C1226.91 2886 1226.03 2886 1225.14 2886C1224.26 2886 1223.38 2886 1222.5 2886C1221.61 2886 1220.73 2886 1219.84 2886C1218.96 2886 1218.07 2886 1217.18 2886C1216.29 2886 1215.41 2886 1214.51 2886C1213.62 2886 1212.73 2886 1211.84 2886C1210.95 2886 1210.05 2886 1209.16 2886C1208.27 2886 1207.37 2886 1206.47 2886C1205.58 2886 1204.68 2886 1203.78 2886C1202.88 2886 1201.98 2886 1201.08 2886C1200.18 2886 1199.28 2886 1198.37 2886C1197.47 2886 1196.57 2886 1195.66 2886C1194.76 2886 1193.85 2886 1192.94 2886C1192.03 2886 1191.13 2886 1190.22 2886C1189.31 2886 1188.4 2886 1187.49 2886C1186.57 2886 1185.66 2886 1184.75 2886C1183.83 2886 1182.92 2886 1182 2886C1181.09 2886 1180.17 2886 1179.26 2886C1178.34 2886 1177.42 2886 1176.5 2886C1175.58 2886 1174.66 2886 1173.74 2886C1172.82 2886 1171.9 2886 1170.97 2886C1170.05 2886 1169.12 2886 1168.2 2886C1167.27 2886 1166.35 2886 1165.42 2886C1164.49 2886 1163.56 2886 1162.64 2886C1161.71 2886 1160.78 2886 1159.85 2886C1158.91 2886 1157.98 2886 1157.05 2886C1156.12 2886 1155.18 2886 1154.25 2886C1153.31 2886 1152.38 2886 1151.44 2886C1150.51 2886 1149.57 2886 1148.63 2886C1147.69 2886 1146.75 2886 1145.81 2886C1144.87 2886 1143.93 2886 1142.99 2886C1142.05 2886 1141.1 2886 1140.16 2886C1139.22 2886 1138.27 2886 1137.33 2886C1136.38 2886 1135.44 2886 1134.49 2886C1133.54 2886 1132.59 2886 1131.65 2886C1130.7 2886 1129.75 2886 1128.8 2886C1127.85 2886 1126.89 2886 1125.94 2886C1124.99 2886 1124.04 2886 1123.08 2886C1122.13 2886 1121.18 2886 1120.22 2886C1119.26 2886 1118.31 2886 1117.35 2886C1116.39 2886 1115.44 2886 1114.48 2886C1113.52 2886 1112.56 2886 1111.6 2886C1110.64 2886 1109.68 2886 1108.72 2886C1107.75 2886 1106.79 2886 1105.83 2886C1104.86 2886 1103.9 2886 1102.94 2886C1101.97 2886 1101 2886 1100.04 2886C1099.07 2886 1098.1 2886 1097.14 2886C1096.17 2886 1095.2 2886 1094.23 2886C1093.26 2886 1092.29 2886 1091.32 2886C1090.35 2886 1089.38 2886 1088.41 2886C1087.43 2886 1086.46 2886 1085.49 2886C1084.51 2886 1083.54 2886 1082.56 2886C1081.59 2886 1080.61 2886 1079.63 2886C1078.66 2886 1077.68 2886 1076.7 2886C1075.72 2886 1074.75 2886 1073.77 2886C1072.79 2886 1071.81 2886 1070.83 2886C1069.85 2886 1068.86 2886 1067.88 2886C1066.9 2886 1065.92 2886 1064.93 2886C1063.95 2886 1062.97 2886 1061.98 2886C1061 2886 1060.01 2886 1059.03 2886C1058.04 2886 1057.05 2886 1056.07 2886C1055.08 2886 1054.09 2886 1053.1 2886C1052.11 2886 1051.12 2886 1050.13 2886C1049.14 2886 1048.15 2886 1047.16 2886C1046.17 2886 1045.18 2886 1044.19 2886C1043.2 2886 1042.2 2886 1041.21 2886C1040.22 2886 1039.22 2886 1038.23 2886C1037.23 2886 1036.24 2886 1035.24 2886C1034.25 2886 1033.25 2886 1032.25 2886C1031.26 2886 1030.26 2886 1029.26 2886C1028.26 2886 1027.27 2886 1026.27 2886C1025.27 2886 1024.27 2886 1023.27 2886C1022.27 2886 1021.27 2886 1020.27 2886C1019.27 2886 1018.26 2886 1017.26 2886C1016.26 2886 1015.26 2886 1014.25 2886C1013.25 2886 1012.25 2886 1011.24 2886C1010.24 2886 1009.23 2886 1008.23 2886C1007.22 2886 1006.22 2886 1005.21 2886C1004.2 2886 1003.2 2886 1002.19 2886C1001.18 2886 1000.18 2886 999.167 2886C998.159 2886 997.15 2886 996.141 2886C995.132 2886 994.123 2886 993.113 2886C992.103 2886 991.092 2886 990.081 2886C989.07 2886 988.059 2886 987.047 2886C986.035 2886 985.023 2886 984.01 2886C982.998 2886 981.985 2886 980.971 2886C979.958 2886 978.944 2886 977.929 2886C976.915 2886 975.9 2886 974.885 2886C973.87 2886 972.855 2886 971.839 2886C970.823 2886 969.806 2886 968.79 2886C967.773 2886 966.756 2886 965.738 2886C964.721 2886 963.703 2886 962.685 2886C961.667 2886 960.648 2886 959.629 2886C958.61 2886 957.591 2886 956.571 2886C955.551 2886 954.531 2886 953.511 2886C952.491 2886 951.47 2886 950.449 2886C949.428 2886 948.406 2886 947.385 2886C946.363 2886 945.341 2886 944.319 2886C943.296 2886 942.274 2886 941.251 2886C940.228 2886 939.204 2886 938.181 2886C937.157 2886 936.133 2886 935.109 2886C934.085 2886 933.06 2886 932.036 2886C931.011 2886 929.986 2886 928.96 2886C927.935 2886 926.91 2886 925.884 2886C924.858 2886 923.832 2886 922.805 2886C921.779 2886 920.752 2886 919.725 2886C918.698 2886 917.671 2886 916.644 2886C915.616 2886 914.589 2886 913.561 2886C912.533 2886 911.505 2886 910.477 2886C909.448 2886 908.42 2886 907.391 2886C906.362 2886 905.333 2886 904.304 2886C903.275 2886 902.245 2886 901.216 2886C900.186 2886 899.156 2886 898.126 2886C897.096 2886 896.066 2886 895.036 2886C894.005 2886 892.975 2886 891.944 2886C890.913 2886 889.882 2886 888.851 2886C887.82 2886 886.789 2886 885.758 2886C884.726 2886 883.695 2886 882.663 2886C881.631 2886 880.599 2886 879.567 2886C878.535 2886 877.503 2886 876.471 2886C875.439 2886 874.406 2886 873.374 2886C872.341 2886 871.308 2886 870.276 2886C869.243 2886 868.21 2886 867.177 2886C866.144 2886 865.111 2886 864.078 2886C863.045 2886 862.011 2886 860.978 2886C859.944 2886 858.911 2886 857.877 2886C856.844 2886 855.81 2886 854.776 2886C853.743 2886 852.709 2886 851.675 2886C850.641 2886 849.607 2886 848.573 2886C847.539 2886 846.505 2886 845.471 2886C844.437 2886 843.403 2886 842.369 2886C841.335 2886 840.3 2886 839.266 2886C838.232 2886 837.198 2886 836.163 2886C835.129 2886 834.095 2886 833.06 2886C832.026 2886 830.992 2886 829.957 2886C828.923 2886 827.888 2886 826.854 2886C825.82 2886 824.785 2886 823.751 2886C822.717 2886 821.682 2886 820.648 2886C819.614 2886 818.579 2886 817.545 2886C816.511 2886 815.477 2886 814.442 2886C813.408 2886 812.374 2886 811.34 2886C810.306 2886 809.272 2886 808.238 2886C807.203 2886 806.17 2886 805.136 2886C804.102 2886 803.068 2886 802.034 2886C801 2886 799.966 2886 798.933 2886C797.899 2886 796.866 2886 795.832 2886C794.799 2886 793.765 2886 792.732 2886C791.699 2886 790.665 2886 789.632 2886C788.599 2886 787.566 2886 786.533 2886C785.5 2886 784.468 2886 783.435 2886C782.402 2886 781.37 2886 780.337 2886C779.305 2886 778.273 2886 777.241 2886C776.208 2886 775.176 2886 774.145 2886C773.113 2886 772.081 2886 771.049 2886C770.018 2886 768.986 2886 767.955 2886C766.924 2886 765.893 2886 764.862 2886C763.831 2886 762.8 2886 761.77 2886C760.739 2886 759.709 2886 758.679 2886C757.648 2886 756.618 2886 755.589 2886C754.559 2886 753.529 2886 752.5 2886C751.47 2886 750.441 2886 749.412 2886C748.383 2886 747.354 2886 746.326 2886C745.297 2886 744.269 2886 743.241 2886C742.213 2886 741.185 2886 740.157 2886C739.13 2886 738.102 2886 737.075 2886C736.048 2886 735.021 2886 733.994 2886C732.968 2886 731.941 2886 730.915 2886C729.889 2886 728.863 2886 727.837 2886C726.812 2886 725.786 2886 724.761 2886C723.736 2886 722.712 2886 721.687 2886C720.663 2886 719.638 2886 718.615 2886C717.591 2886 716.567 2886 715.544 2886C714.521 2886 713.498 2886 712.475 2886C711.452 2886 710.43 2886 709.408 2886C708.386 2886 707.364 2886 706.343 2886C705.321 2886 704.3 2886 703.28 2886C702.259 2886 701.238 2886 700.218 2886C699.198 2886 698.179 2886 697.159 2886C696.14 2886 695.121 2886 694.103 2886C693.084 2886 692.066 2886 691.048 2886C690.03 2886 689.013 2886 687.995 2886C686.978 2886 685.962 2886 684.945 2886C683.929 2886 682.913 2886 681.897 2886C680.882 2886 679.867 2886 678.852 2886C677.837 2886 676.823 2886 675.809 2886C674.795 2886 673.781 2886 672.768 2886C671.755 2886 670.743 2886 669.73 2886C668.718 2886 667.706 2886 666.695 2886C665.684 2886 664.673 2886 663.662 2886C662.652 2886 661.642 2886 660.632 2886C659.623 2886 658.614 2886 657.605 2886C656.596 2886 655.588 2886 654.581 2886C653.573 2886 652.566 2886 651.559 2886C650.552 2886 649.546 2886 648.54 2886C647.534 2886 646.529 2886 645.524 2886C644.52 2886 643.515 2886 642.511 2886C641.508 2886 640.504 2886 639.502 2886C638.499 2886 637.497 2886 636.495 2886C635.493 2886 634.492 2886 633.492 2886C632.491 2886 631.491 2886 630.491 2886C629.492 2886 628.493 2886 627.494 2886C626.496 2886 625.498 2886 624.5 2886C623.503 2886 622.506 2886 621.51 2886C620.514 2886 619.518 2886 618.523 2886C617.528 2886 616.533 2886 615.539 2886C614.545 2886 613.552 2886 612.559 2886C611.567 2886 610.574 2886 609.583 2886C608.591 2886 607.6 2886 606.61 2886C605.62 2886 604.63 2886 603.641 2886C602.652 2886 601.663 2886 600.675 2886C599.687 2886 598.7 2886 597.713 2886C596.727 2886 595.741 2886 594.755 2886C593.77 2886 592.785 2886 591.801 2886C590.817 2886 589.834 2886 588.851 2886C587.868 2886 586.886 2886 585.905 2886C584.923 2886 583.943 2886 582.963 2886C581.982 2886 581.003 2886 580.024 2886C579.046 2886 578.068 2886 577.09 2886C576.113 2886 575.136 2886 574.16 2886C573.184 2886 572.209 2886 571.235 2886C570.26 2886 569.286 2886 568.313 2886C567.34 2886 566.368 2886 565.396 2886C564.424 2886 563.453 2886 562.483 2886C561.513 2886 560.544 2886 559.575 2886C558.606 2886 557.638 2886 556.671 2886C555.704 2886 554.737 2886 553.772 2886C552.806 2886 551.841 2886 550.877 2886C549.913 2886 548.949 2886 547.987 2886C547.024 2886 546.062 2886 545.101 2886C544.14 2886 543.18 2886 542.22 2886C541.261 2886 540.302 2886 539.344 2886C538.386 2886 537.429 2886 536.473 2886C535.517 2886 534.561 2886 533.607 2886C532.652 2886 531.698 2886 530.745 2886C529.792 2886 528.84 2886 527.889 2886C526.938 2886 525.987 2886 525.037 2886C524.088 2886 523.139 2886 522.191 2886C521.243 2886 520.296 2886 519.35 2886C518.404 2886 517.458 2886 516.514 2886C515.569 2886 514.626 2886 513.683 2886C512.74 2886 511.798 2886 510.857 2886C509.916 2886 508.976 2886 508.037 2886C507.098 2886 506.159 2886 505.222 2886C504.285 2886 503.348 2886 502.413 2886C501.477 2886 500.542 2886 499.609 2886C498.675 2886 497.742 2886 496.81 2886C495.878 2886 494.947 2886 494.017 2886C493.087 2886 492.158 2886 491.23 2886C490.302 2886 489.375 2886 488.448 2886C487.522 2886 486.597 2886 485.673 2886C484.748 2886 483.825 2886 482.903 2886C481.98 2886 481.059 2886 480.138 2886C479.218 2886 478.298 2886 477.38 2886C476.462 2886 475.544 2886 474.628 2886C473.711 2886 472.796 2886 471.881 2886C470.967 2886 470.053 2886 469.141 2886C468.228 2886 467.317 2886 466.406 2886C465.496 2886 464.587 2886 463.678 2886C462.77 2886 461.862 2886 460.956 2886C460.05 2886 459.145 2886 458.24 2886C457.336 2886 456.433 2886 455.531 2886C454.629 2886 453.728 2886 452.828 2886C451.928 2886 451.029 2886 450.131 2886C449.233 2886 448.336 2886 447.441 2886C446.545 2886 445.65 2886 444.757 2886C443.863 2886 442.971 2886 442.08 2886C441.188 2886 440.298 2886 439.409 2886C438.52 2886 437.632 2886 436.745 2886C435.858 2886 434.972 2886 434.087 2886C433.203 2886 432.319 2886 431.437 2886C430.554 2886 429.673 2886 428.793 2886C427.913 2886 427.034 2886 426.156 2886C425.278 2886 424.401 2886 423.526 2886C422.65 2886 421.776 2886 420.903 2886C420.029 2886 419.157 2886 418.286 2886C417.415 2886 416.546 2886 415.677 2886C414.809 2886 413.941 2886 413.075 2886C412.209 2886 411.344 2886 410.48 2886C409.617 2886 408.754 2886 407.893 2886C407.031 2886 406.171 2886 405.312 2886C404.453 2886 403.595 2886 402.739 2886C401.882 2886 401.027 2886 400.173 2886C399.319 2886 398.466 2886 397.615 2886C396.763 2886 395.913 2886 395.064 2886C394.215 2886 393.367 2886 392.52 2886C391.674 2886 390.828 2886 389.984 2886C389.14 2886 388.298 2886 387.456 2886C386.615 2886 385.774 2886 384.935 2886C384.096 2886 383.259 2886 382.422 2886C381.586 2886 380.751 2886 379.917 2886C379.083 2886 378.251 2886 377.42 2886C376.589 2886 375.759 2886 374.93 2886C374.102 2886 373.274 2886 372.449 2886C371.623 2886 370.798 2886 369.975 2886C369.152 2886 368.33 2886 367.509 2886C366.689 2886 365.869 2886 365.052 2886C364.234 2886 363.417 2886 362.602 2886C361.787 2886 360.973 2886 360.161 2886C359.348 2886 358.537 2886 357.727 2886C356.918 2886 356.109 2886 355.303 2886C354.496 2886 353.69 2886 352.886 2886C352.082 2886 351.279 2886 350.478 2886C349.676 2886 348.876 2886 348.078 2886C347.279 2886 346.482 2886 345.687 2886C344.891 2886 344.097 2886 343.304 2886C342.511 2886 341.719 2886 340.929 2886C340.139 2886 339.351 2886 338.564 2886C337.777 2886 336.991 2886 336.207 2886C335.422 2886 334.64 2886 333.858 2886C333.077 2886 332.297 2886 331.519 2886C330.74 2886 329.964 2886 329.188 2886C328.413 2886 327.639 2886 326.866 2886C326.094 2886 325.323 2886 324.553 2886C323.784 2886 323.016 2886 322.249 2886C321.483 2886 320.718 2886 319.954 2886C319.191 2886 318.429 2886 317.668 2886C316.908 2886 316.149 2886 315.392 2886C314.634 2886 313.878 2886 313.124 2886C312.37 2886 311.617 2886 310.866 2886C310.114 2886 309.365 2886 308.617 2886C307.868 2886 307.122 2886 306.377 2886C305.632 2886 304.888 2886 304.146 2886C303.404 2886 302.664 2886 301.925 2886C301.187 2886 300.449 2886 299.714 2886C298.978 2886 298.244 2886 297.512 2886C296.779 2886 296.049 2886 295.319 2886C294.59 2886 293.863 2886 293.137 2886C292.411 2886 291.686 2886 290.963 2886C290.241 2886 289.52 2886 288.8 2886C288.08 2886 287.363 2886 286.646 2886C285.93 2886 285.215 2886 284.503 2886C283.79 2886 283.078 2886 282.369 2886C281.659 2886 280.951 2886 280.245 2886C279.538 2886 278.834 2886 278.131 2886C277.428 2886 276.726 2886 276.027 2886C275.327 2886 274.629 2886 273.933 2886C273.236 2886 272.542 2886 271.849 2886C271.156 2886 270.465 2886 269.775 2886C269.086 2886 268.398 2886 267.712 2886C267.026 2886 266.341 2886 265.659 2886C264.976 2886 264.295 2886 263.616 2886C262.937 2886 262.259 2886 261.584 2886C260.908 2886 260.234 2886 259.562 2886C258.889 2886 258.219 2886 257.55 2886C256.881 2886 256.214 2886 255.549 2886C254.884 2886 254.221 2886 253.559 2886C252.897 2886 252.237 2886 251.579 2886C250.921 2886 250.265 2886 249.61 2886C248.956 2886 248.303 2886 247.652 2886C247.001 2886 246.352 2886 245.704 2886C245.057 2886 244.411 2886 243.768 2886C243.124 2886 242.482 2886 241.842 2886C241.202 2886 240.564 2886 239.927 2886C239.291 2886 238.656 2886 238.023 2886C237.39 2886 236.76 2886 236.13 2886C235.501 2886 234.874 2886 234.249 2886C233.623 2886 233 2886 232.378 2886C231.756 2886 231.137 2886 230.519 2886C229.901 2886 229.285 2886 228.671 2886C228.056 2886 227.444 2886 226.834 2886C226.223 2886 225.615 2886 225.008 2886C224.402 2886 223.797 2886 223.194 2886C222.591 2886 221.99 2886 221.392 2886C220.793 2886 220.195 2886 219.6 2886C219.005 2886 218.412 2886 217.821 2886C217.229 2886 216.64 2886 216.053 2886C215.465 2886 214.88 2886 214.296 2886C213.713 2886 213.131 2886 212.552 2886C211.972 2886 211.394 2886 210.819 2886C210.243 2886 209.669 2886 209.098 2886C208.526 2886 207.956 2886 207.388 2886C206.821 2886 206.255 2886 205.691 2886C205.127 2886 204.565 2886 204.005 2886C203.446 2886 202.888 2886 202.332 2886C201.776 2886 201.222 2886 200.671 2886C200.119 2886 199.569 2886 199.021 2886C198.474 2886 197.928 2886 197.384 2886C196.841 2886 196.299 2886 195.759 2886C195.22 2886 194.682 2886 194.147 2886C193.611 2886 193.078 2886 192.546 2886C192.015 2886 191.486 2886 190.958 2886C190.431 2886 189.906 2886 189.383 2886C188.86 2886 188.339 2886 187.82 2886C187.301 2886 186.784 2886 186.269 2886C185.754 2886 185.242 2886 184.731 2886C184.22 2886 183.712 2886 183.206 2886C182.699 2886 182.195 2886 181.693 2886C181.191 2886 180.69 2886 180.193 2886C179.695 2886 179.199 2886 178.705 2886C178.212 2886 177.72 2886 177.231 2886C176.741 2886 176.254 2886 175.769 2886C175.284 2886 174.801 2886 174.32 2886C173.84 2886 173.361 2886 172.885 2886C172.408 2886 171.934 2886 171.462 2886C170.99 2886 170.52 2886 170.052 2886C169.584 2886 169.119 2886 168.655 2886C168.192 2886 167.731 2886 167.272 2886C166.813 2886 166.356 2886 165.902 2886C165.447 2886 164.995 2886 164.545 2886C164.095 2886 163.647 2886 163.201 2886C162.756 2886 162.312 2886 161.871 2886C161.43 2886 160.991 2886 160.554 2886C160.117 2886 159.683 2886 159.251 2886C158.819 2886 158.389 2886 157.961 2886C157.533 2886 157.108 2886 156.685 2886C156.261 2886 155.841 2886 155.422 2886C155.003 2886 154.587 2886 154.173 2886C153.759 2886 153.347 2886 152.938 2886C152.528 2886 152.121 2886 151.716 2886C151.311 2886 150.909 2886 150.508 2886C150.108 2886 149.71 2886 149.315 2886C148.919 2886 148.526 2886 148.135 2886C147.744 2886 147.355 2886 146.969 2886C146.583 2886 146.199 2886 145.817 2886C145.435 2886 145.056 2886 144.679 2886C144.302 2886 143.928 2886 143.556 2886C143.183 2886 142.813 2886 142.446 2886C142.079 2886 141.713 2886 141.351 2886C140.988 2886 140.628 2886 140.27 2886C139.912 2886 139.556 2886 139.203 2886C138.85 2886 138.499 2886 138.151 2886C137.802 2886 137.456 2886 137.113 2886C136.769 2886 136.428 2886 136.09 2886C135.751 2886 135.415 2886 135.081 2886C134.747 2886 134.415 2886 134.086 2886C133.757 2886 133.431 2886 133.107 2886C132.783 2886 132.461 2886 132.142 2886C131.823 2886 131.506 2886 131.192 2886C130.877 2886 130.565 2886 130.256 2886C129.947 2886 129.64 2886 129.336 2886C129.031 2886 128.729 2886 128.43 2886C128.13 2886 127.833 2886 127.539 2886C127.245 2886 126.953 2886 126.663 2886C126.374 2886 126.087 2886 125.802 2886C125.518 2886 125.236 2886 124.957 2886C124.677 2886 124.401 2886 124.126 2886C123.852 2886 123.58 2886 123.311 2886C123.042 2886 122.775 2886 122.511 2886C122.247 2886 121.985 2886 121.726 2886C121.467 2886 121.21 2886 120.957 2886C120.703 2886 120.451 2886 120.202 2886C119.954 2886 119.707 2886 119.464 2886C119.22 2886 118.979 2886 118.741 2886C118.502 2886 118.266 2886 118.033 2886C117.8 2886 117.569 2886 117.341 2886C117.113 2886 116.887 2886 116.665 2886C116.442 2886 116.222 2886 116.004 2886C115.786 2886 115.571 2886 115.359 2886C115.147 2886 114.937 2886 114.73 2886C114.523 2886 114.318 2886 114.117 2886C113.915 2886 113.716 2886 113.519 2886C113.323 2886 113.129 2886 112.938 2886C112.747 2886 112.558 2886 112.372 2886C112.186 2886 112.003 2886 111.823 2886C111.642 2886 111.465 2886 111.29 2886C111.115 2886 110.942 2886 110.772 2886C110.603 2886 110.436 2886 110.271 2886C110.107 2886 109.946 2886 109.787 2886C109.628 2886 109.472 2886 109.318 2886C109.165 2886 109.014 2886 108.866 2886C108.718 2886 108.573 2886 108.431 2886C108.288 2886 108.148 2886 108.011 2886C107.874 2886 107.74 2886 107.609 2886C107.477 2886 107.349 2886 107.223 2886C107.097 2886 106.974 2886 106.853 2886C106.733 2886 106.615 2886 106.5 2886V2890ZM-135 2337.79H-171V2341.79H-135V2337.79Z" fill="#F9C436"/>
</svg>
